<svg width="327" height="314" viewBox="0 0 327 314" fill="none" xmlns="http://www.w3.org/2000/svg">
<path d="M326.41 236.423C326.201 250.564 320.624 261.855 311.655 270.809C309.53 272.922 307.266 274.889 304.877 276.697C303.976 277.391 303.045 278.064 302.085 278.715L301.123 279.366C300.159 280.017 299.175 280.646 298.172 281.254L297.152 281.862C296.14 282.455 295.105 283.041 294.049 283.619L292.993 284.183C292.27 284.552 291.547 284.907 290.823 285.283C285.235 288.024 279.455 290.354 273.529 292.255C271.914 292.786 270.286 293.287 268.647 293.76C267.005 294.237 265.348 294.693 263.685 295.113C257.754 296.653 251.692 297.897 245.66 298.895C244.213 299.134 242.731 299.366 241.277 299.575C235.208 300.458 229.197 301.087 223.404 301.514C221.906 301.622 220.416 301.716 218.948 301.796C211.093 302.223 203.722 302.273 197.213 302.027C193.647 301.904 190.341 301.687 187.368 301.391C185.669 301.239 184.077 301.051 182.602 300.841C175.962 299.911 169.392 298.758 162.891 297.384C156.391 296.009 149.995 294.442 143.702 292.682C141.185 291.978 138.682 291.24 136.194 290.469C125.188 287.065 114.401 282.992 103.891 278.274C101.601 277.256 99.3293 276.203 97.0774 275.113C92.5784 272.953 88.1855 270.679 83.8987 268.292C83.4141 268.032 82.9295 267.764 82.4521 267.475C77.63 264.765 72.9309 261.922 68.3548 258.947C67.2119 258.224 66.0691 257.443 64.948 256.669L64.5502 256.394C62.995 255.338 61.4544 254.224 59.9427 253.146C58.8529 252.36 57.7703 251.56 56.695 250.745C55.6245 249.927 54.5757 249.11 53.5341 248.278C41.5778 238.716 31.6395 227.917 26.0483 215.794C18.2076 198.876 19.2709 180.482 23.1551 162.862C23.278 162.298 23.4082 161.72 23.5457 161.141C23.6831 160.562 23.7844 160.114 23.9146 159.6C24.0448 159.087 24.1822 158.508 24.3196 157.958C24.4209 157.546 24.5294 157.134 24.6379 156.714L24.7247 156.389C67.183 156.678 109.504 159.282 148.924 168.794C152.201 169.589 155.586 170.493 157.843 172.237C160.1 173.98 160.808 176.83 158.479 178.594C156.15 180.359 151.564 180.555 149.857 182.623C148.411 184.352 149.944 186.58 152.375 187.686C154.805 188.793 157.872 188.96 160.801 189.133C187.976 190.507 215.447 190.023 242.362 192.692C258.224 194.261 299.655 202.927 321.13 209.198C321.535 210.268 321.919 211.331 322.273 212.38C322.381 212.706 322.49 213.024 322.591 213.357C323.642 216.5 324.497 219.706 325.152 222.955C325.224 223.324 325.296 223.678 325.369 224.062L325.564 225.161L325.738 226.253C325.788 226.579 325.839 226.919 325.882 227.244C325.926 227.57 325.991 228.04 326.034 228.431C326.128 229.154 326.193 229.827 326.251 230.514C326.345 231.555 326.41 232.597 326.439 233.609C326.468 234.622 326.425 235.476 326.41 236.423Z" fill="#92E3A9"/>
<path opacity="0.4" d="M326.41 236.423C326.201 250.564 320.624 261.855 311.655 270.809C309.53 272.922 307.266 274.889 304.877 276.697C303.976 277.391 303.045 278.064 302.085 278.715L301.123 279.366C300.159 280.017 299.175 280.646 298.172 281.254L297.152 281.862C296.14 282.455 295.105 283.041 294.049 283.619L292.993 284.183C292.27 284.552 291.547 284.907 290.823 285.283C285.235 288.024 279.455 290.354 273.529 292.255C271.914 292.786 270.286 293.287 268.647 293.76C267.005 294.237 265.348 294.693 263.685 295.113C257.754 296.653 251.692 297.897 245.66 298.895C244.213 299.134 242.731 299.366 241.277 299.575C235.208 300.458 229.197 301.087 223.404 301.514C221.906 301.622 220.416 301.716 218.948 301.796C211.093 302.223 203.722 302.273 197.213 302.027C193.647 301.904 190.341 301.687 187.368 301.391C185.669 301.239 184.077 301.051 182.602 300.841C175.962 299.911 169.392 298.758 162.891 297.384C156.391 296.009 149.995 294.442 143.702 292.682C141.185 291.978 138.682 291.24 136.194 290.469C125.188 287.065 114.401 282.992 103.891 278.274C101.601 277.256 99.3293 276.203 97.0774 275.113C92.5784 272.953 88.1855 270.679 83.8987 268.292C83.4141 268.032 82.9295 267.764 82.4521 267.475C77.63 264.765 72.9309 261.922 68.3548 258.947C67.2119 258.224 66.0691 257.443 64.948 256.669L64.5502 256.394C62.995 255.338 61.4544 254.224 59.9427 253.146C58.8529 252.36 57.7703 251.56 56.695 250.745C55.6245 249.927 54.5757 249.11 53.5341 248.278C41.5778 238.716 31.6395 227.917 26.0483 215.794C18.2076 198.876 19.2709 180.482 23.1551 162.862C23.278 162.298 23.4082 161.72 23.5457 161.141C23.6831 160.562 23.7844 160.114 23.9146 159.6C24.0448 159.087 24.1822 158.508 24.3196 157.958C24.4209 157.546 24.5294 157.134 24.6379 156.714L24.7247 156.389C67.183 156.678 109.504 159.282 148.924 168.794C152.201 169.589 155.586 170.493 157.843 172.237C160.1 173.98 160.808 176.83 158.479 178.594C156.15 180.359 151.564 180.555 149.857 182.623C148.411 184.352 149.944 186.58 152.375 187.686C154.805 188.793 157.872 188.96 160.801 189.133C187.976 190.507 215.447 190.023 242.362 192.692C258.224 194.261 299.655 202.927 321.13 209.198C321.535 210.268 321.919 211.331 322.273 212.38C322.381 212.706 322.49 213.024 322.591 213.357C323.642 216.5 324.497 219.706 325.152 222.955C325.224 223.324 325.296 223.678 325.369 224.062L325.564 225.161L325.738 226.253C325.788 226.579 325.839 226.919 325.882 227.244C325.926 227.57 325.991 228.04 326.034 228.431C326.128 229.154 326.193 229.827 326.251 230.514C326.345 231.555 326.41 232.597 326.439 233.609C326.468 234.622 326.425 235.476 326.41 236.423Z" fill="white"/>
<path d="M174.595 199.751C199.686 200.872 227.122 202.268 246.752 204.185C269.602 206.42 292.784 212.142 313.065 217.516" stroke="#999999" stroke-linecap="round" stroke-linejoin="round"/>
<path d="M163.976 199.288L169.358 199.52" stroke="#999999" stroke-linecap="round" stroke-linejoin="round"/>
<path d="M73.5842 169.698C91.2376 171.487 108.78 174.239 126.133 177.943C129.785 178.739 133.554 179.643 136.071 181.386C138.588 183.13 139.377 185.979 136.794 187.744C134.212 189.509 129.091 189.705 127.189 191.773C125.612 193.502 127.283 195.73 129.995 196.8C132.708 197.871 136.122 198.066 139.398 198.247C145.539 198.522 152.418 198.818 159.651 199.129" stroke="#999999" stroke-linecap="round" stroke-linejoin="round"/>
<path d="M64.9407 168.851L68.8176 169.213" stroke="#999999" stroke-linecap="round" stroke-linejoin="round"/>
<path d="M27.4299 166.421C37.7492 166.845 48.0105 167.463 58.214 168.273" stroke="#999999" stroke-linecap="round" stroke-linejoin="round"/>
<path d="M139.224 115.211C139.55 114.413 139.696 113.554 139.651 112.694C139.585 111.344 139.062 110.056 138.166 109.044C137.271 108.031 136.057 107.354 134.725 107.124C134.424 104.162 133.031 101.419 130.819 99.427C128.606 97.4352 125.732 96.3375 122.755 96.3474C119.778 96.3574 116.911 97.4742 114.712 99.4807C112.513 101.487 111.138 104.24 110.856 107.204C110.461 107.13 110.057 107.103 109.656 107.124C108.45 107.18 107.3 107.65 106.401 108.455C106.239 107.623 105.822 106.862 105.208 106.278C104.593 105.695 103.812 105.317 102.973 105.199C102.134 105.08 101.279 105.226 100.526 105.617C99.7742 106.007 99.1627 106.623 98.7769 107.377C98.5026 104.73 97.3048 102.264 95.3937 100.411C93.4826 98.5589 90.9802 97.4387 88.3256 97.2471C85.6709 97.0555 83.0336 97.8048 80.8763 99.3636C78.719 100.922 77.1795 103.191 76.5279 105.772C76.1957 105.746 75.862 105.746 75.5297 105.772C74.1285 105.84 72.7884 106.366 71.7146 107.269C70.6408 108.171 69.8924 109.401 69.5841 110.77C69.0324 110.481 68.4268 110.31 67.8056 110.268C67.1844 110.226 66.5612 110.313 65.9756 110.525C65.3899 110.736 64.8547 111.067 64.4038 111.497C63.9529 111.926 63.5963 112.444 63.3564 113.019C62.9422 112.492 62.3712 112.111 61.726 111.93C61.0809 111.749 60.3948 111.777 59.767 112.012C59.1391 112.246 58.602 112.674 58.2331 113.233C57.8642 113.792 57.6826 114.455 57.7146 115.124C57.7241 115.292 57.7483 115.459 57.7869 115.623C57.6029 115.275 57.306 114.999 56.9449 114.842C56.5837 114.685 56.1799 114.655 55.7997 114.758C55.4194 114.861 55.0854 115.089 54.8524 115.407C54.6194 115.725 54.5013 116.112 54.5175 116.505C54.5258 116.632 54.5451 116.758 54.5754 116.882C54.4674 116.917 54.3632 116.963 54.2644 117.019C53.9188 116.704 53.4659 116.532 52.9981 116.539C52.5303 116.546 52.0828 116.731 51.7469 117.057C51.411 117.383 51.2121 117.824 51.1907 118.292C51.1692 118.759 51.3269 119.217 51.6315 119.572L139.224 115.211Z" stroke="#A8A8A8" stroke-linecap="round" stroke-linejoin="round"/>
<path d="M285.999 89.0558H231.027C231.026 87.7295 231.405 86.4306 232.12 85.3134C232.834 84.1961 233.855 83.3075 235.06 82.7531C236.265 82.1986 237.603 82.0016 238.917 82.1854C240.23 82.3693 241.464 82.9262 242.47 83.7901C243.233 81.5837 244.754 79.7192 246.761 78.5275C248.769 77.3359 251.134 76.8942 253.436 77.281C255.739 77.6678 257.829 78.8579 259.338 80.6402C260.846 82.4224 261.673 84.6814 261.674 87.0161V87.0739C261.974 86.6889 262.352 86.3719 262.784 86.1436C263.215 85.9154 263.69 85.7812 264.178 85.7497C264.665 85.7183 265.153 85.7904 265.611 85.9613C266.068 86.1322 266.484 86.398 266.831 86.7412C267.041 84.7657 267.999 82.9455 269.509 81.6549C271.019 80.3643 272.967 79.7013 274.951 79.8023C276.935 79.9033 278.805 80.7605 280.176 82.1977C281.548 83.635 282.316 85.543 282.324 87.5296C282.715 87.2451 283.186 87.093 283.67 87.0956C284.228 87.0916 284.769 87.2868 285.196 87.6461C285.623 88.0054 285.907 88.5053 285.999 89.0558V89.0558Z" stroke="#A8A8A8" stroke-linecap="round" stroke-linejoin="round"/>
<path d="M307.691 122.762L225.168 118.285C225.276 116.293 225.952 114.374 227.117 112.754C228.282 111.135 229.887 109.884 231.742 109.15C233.596 108.415 235.623 108.227 237.581 108.609C239.538 108.991 241.346 109.927 242.788 111.305C244.11 108.052 246.543 105.372 249.654 103.743C252.765 102.115 256.353 101.642 259.78 102.409C263.207 103.175 266.251 105.133 268.371 107.932C270.491 110.732 271.55 114.192 271.359 117.699V117.786C271.842 117.234 272.437 116.79 273.104 116.483C273.771 116.177 274.495 116.014 275.229 116.007C275.963 115.999 276.69 116.147 277.363 116.439C278.036 116.732 278.64 117.164 279.134 117.706C279.615 114.762 281.205 112.114 283.576 110.304C285.947 108.494 288.921 107.66 291.887 107.973C294.854 108.285 297.589 109.721 299.53 111.985C301.472 114.25 302.474 117.171 302.331 120.151C302.836 119.833 303.413 119.649 304.008 119.616C304.603 119.583 305.197 119.702 305.734 119.962C306.271 120.222 306.733 120.613 307.076 121.101C307.42 121.588 307.634 122.155 307.698 122.748L307.691 122.762Z" stroke="#A8A8A8" stroke-linecap="round" stroke-linejoin="round"/>
<path d="M316.392 198.587C300.241 192.272 281.391 188.685 262.592 186.826C235.678 184.157 208.207 184.656 181.032 183.267C178.103 183.115 175.036 182.92 172.605 181.82C170.175 180.721 168.671 178.522 170.088 176.793C171.795 174.717 176.367 174.544 178.71 172.765C181.054 170.985 180.33 168.15 178.074 166.399C175.817 164.649 172.432 163.752 169.155 162.964C123.941 152.042 74.9078 150.248 26.229 150.588C26.4243 149.959 26.6196 149.322 26.8221 148.693C27.0246 148.063 27.191 147.543 27.3863 146.971C27.8131 145.655 28.2687 144.338 28.7389 143.029C28.9631 142.4 29.1873 141.771 29.4188 141.149L30.0264 139.536C31.1933 136.498 32.4447 133.477 33.7804 130.473C34.0118 129.937 34.2505 129.409 34.5037 128.881L35.01 127.775C35.2487 127.261 35.4874 126.748 35.7333 126.241C36.095 125.467 36.4566 124.708 36.8472 123.941C37.2957 123.022 37.7586 122.104 38.2215 121.185L38.4602 120.722C128.006 108.426 272.813 115.102 307.134 122.668C307.138 122.731 307.138 122.793 307.134 122.856C306.063 147.449 303.127 172.2 314.888 195.563C314.989 195.78 315.098 195.99 315.206 196.2L315.814 197.401C316.009 197.777 316.197 198.16 316.378 198.536C316.385 198.552 316.39 198.569 316.392 198.587Z" fill="#999999"/>
<path d="M26.3157 150.61C75.2259 150.27 124.505 152.006 169.936 163.007C173.213 163.803 176.598 164.707 178.855 166.45C181.111 168.193 181.82 171.043 179.491 172.808C177.162 174.573 172.576 174.768 170.869 176.837C169.423 178.566 170.956 180.793 173.386 181.864C175.817 182.934 178.884 183.137 181.813 183.31C208.988 184.685 236.459 184.2 263.373 186.869C281.84 188.699 300.349 192.193 316.305 198.29" stroke="#263238" stroke-linecap="round" stroke-linejoin="round"/>
<path d="M241.609 132.064H267.598" stroke="white" stroke-linecap="round" stroke-linejoin="round"/>
<path d="M257.855 136.129H253.385" stroke="white" stroke-linecap="round" stroke-linejoin="round"/>
<path d="M240.799 134.906H246.484" stroke="white" stroke-linecap="round" stroke-linejoin="round"/>
<path d="M171.759 131.659H143.738" stroke="white" stroke-linecap="round" stroke-linejoin="round"/>
<path d="M136.838 132.563H159.579" stroke="white" stroke-linecap="round" stroke-linejoin="round"/>
<path d="M150.24 136.939H161.611" stroke="white" stroke-linecap="round" stroke-linejoin="round"/>
<path d="M174.602 139.377H162.826" stroke="white" stroke-linecap="round" stroke-linejoin="round"/>
<path d="M227.396 147.094H244.857" stroke="white" stroke-linecap="round" stroke-linejoin="round"/>
<path d="M196.872 136.939H181.69" stroke="white" stroke-linecap="round" stroke-linejoin="round"/>
<path d="M232.785 137.648H226.282" stroke="white" stroke-linecap="round" stroke-linejoin="round"/>
<path d="M241.718 143.839H235.222" stroke="white" stroke-linecap="round" stroke-linejoin="round"/>
<path d="M173.792 143.839H181.104" stroke="white" stroke-linecap="round" stroke-linejoin="round"/>
<path d="M195.375 141.698H202.688" stroke="white" stroke-linecap="round" stroke-linejoin="round"/>
<path d="M169.727 143.839H144.96" stroke="white" stroke-linecap="round" stroke-linejoin="round"/>
<path d="M213.321 147.094H220.633" stroke="white" stroke-linecap="round" stroke-linejoin="round"/>
<path d="M209.263 147.094H184.489" stroke="white" stroke-linecap="round" stroke-linejoin="round"/>
<path d="M246.072 139.377H257.855" stroke="white" stroke-linecap="round" stroke-linejoin="round"/>
<path d="M207.433 141.698H219.208" stroke="white" stroke-linecap="round" stroke-linejoin="round"/>
<path d="M262.318 139.377H268.82" stroke="white" stroke-linecap="round" stroke-linejoin="round"/>
<path d="M237.956 132.064H233.891" stroke="white" stroke-linecap="round" stroke-linejoin="round"/>
<path d="M163.463 134.82H171.585" stroke="white" stroke-linecap="round" stroke-linejoin="round"/>
<path d="M140.085 137.344H144.555" stroke="white" stroke-linecap="round" stroke-linejoin="round"/>
<path d="M248.922 147.094H253.385" stroke="white" stroke-linecap="round" stroke-linejoin="round"/>
<path d="M219.678 153.185H235.519" stroke="white" stroke-linecap="round" stroke-linejoin="round"/>
<path d="M175.824 152.779H170.139" stroke="white" stroke-linecap="round" stroke-linejoin="round"/>
<path d="M167.195 152.779H154.4" stroke="white" stroke-linecap="round" stroke-linejoin="round"/>
<path d="M116.599 88.7665L117.323 88.1372L103.196 94.2854L102.603 94.5385L91.7898 99.2328L89.6199 100.188L83.1101 103.016C83.0308 103.146 82.9438 103.272 82.8497 103.392L79.5587 104.838C79.5587 104.838 79.5587 104.838 79.6093 104.838C80.8245 105.453 83.5079 107.196 86.7411 109.381C95.1966 115.102 107.457 123.919 107.457 123.919C107.457 123.919 120.252 131.066 112.281 128.346L113.229 128.614L106.111 124.151L86.0757 111.601L79.8118 107.674C80.0723 108.534 80.2277 109.423 80.2747 110.321C80.4228 110.897 80.4491 111.497 80.352 112.084C80.2548 112.671 80.0364 113.231 79.7106 113.728C80.81 112.715 82.8931 111.117 81.8009 113.366C81.0342 115.102 80.2723 116.838 79.5153 118.574C80.1373 117.128 82.6689 117.127 83.2475 118.632C82.3943 119.109 81.6468 119.755 81.05 120.529C80.4533 121.304 80.0198 122.191 79.7757 123.138C80.2124 122.679 80.7939 122.385 81.4224 122.305C82.0508 122.224 82.6877 122.363 83.2258 122.697C82.6079 123.182 82.0666 123.758 81.6201 124.404C81.2588 124.927 80.9602 125.49 80.7304 126.082L82.5893 172.237L82.6472 173.683L83.1752 186.79L85.0341 234.253C88.9472 251.613 85.6706 265.037 84.5929 268.704L83.8696 268.314C83.385 268.046 82.9004 267.779 82.423 267.497C77.6009 264.777 72.9018 261.929 68.3257 258.954L66.9803 258.065C66.879 252.755 65.0201 244.799 70.011 234.195L72.6872 175.998L72.8608 172.215L73.0778 167.506L73.1863 164.967L73.3671 161.213L73.519 157.763V157.148L73.6637 153.922V153.336L73.8734 148.866L73.9168 147.897L74.1121 143.557L74.3725 138.067L74.5895 133.301L74.6474 132.071L74.8571 127.449V127.312C73.7505 125.004 72.6438 122.711 71.5444 120.411L73.6709 120.563C72.8175 119.09 72.3987 117.404 72.463 115.703L74.9367 117.742C74.8644 116.216 73.6203 109.938 74.6691 106.893L66.9948 110.176L45.2954 119.493L43.6463 120.216L44.6155 120.108C39.4511 121.012 42.8434 119.384 46.1272 118.024C48.1164 117.193 50.0693 116.469 50.0693 116.469C50.0693 116.469 55.458 113.742 61.758 110.632C65.7217 108.679 70.0471 106.567 73.6131 104.896L64.4415 100.556L59.0528 97.9887L53.9318 95.4427L37.5126 87.6164L38.2359 88.2674C31.6683 83.0017 44.5649 89.9672 44.5649 89.9672C44.5649 89.9672 49.1507 91.8044 54.8359 94.1407C56.5719 94.864 58.4091 95.5873 60.2535 96.3757C62.0979 97.1641 63.8194 97.873 65.512 98.5963C70.0905 100.556 74.0253 102.307 75.5154 103.168L70.0182 87.4428L69.1864 85.0704L66.9224 78.5606L62.1847 65.0058L62.2354 65.9895C61.3602 57.6208 62.5464 62.0908 62.5464 62.0908C62.5464 62.0908 65.1937 68.861 68.3329 76.9331C69.1213 78.9801 69.9459 81.1211 70.756 83.2476C71.2551 84.5568 71.7469 85.8588 72.2026 87.1391C74.481 93.1642 76.5425 98.712 77.4538 101.533L81.1283 88.8244L87.9274 65.324L88.5132 63.2915L87.9852 64.1161C92.1153 56.7817 90.4951 61.1216 90.4951 61.1216C90.4951 61.1216 90.2781 62.0257 89.8875 63.5591C88.5856 68.7597 85.4319 81.273 82.857 90.9871C81.6346 95.609 80.5424 99.6017 79.8408 101.837C81.461 101.113 84.13 99.9995 87.233 98.7988L88.0431 98.4733C97.4461 94.8568 110.198 90.2276 110.198 90.2276C110.198 90.2276 123.37 83.7033 116.599 88.7665Z" fill="#999999"/>
<path d="M12.7032 142.219C21.8224 133.691 31.6651 125.971 42.1202 119.146C51.1472 113.265 57.7872 109.988 68.8176 110.133C67.0745 112.101 66.221 117.995 66.1414 119.247C66.0779 119.601 65.9095 119.929 65.6581 120.187C65.4067 120.444 65.0837 120.621 64.7309 120.693C64.0091 120.821 63.2679 120.786 62.561 120.592C59.2432 119.896 56.0326 118.763 53.0133 117.222C55.1832 119.319 57.2302 122.654 58.7998 125.25C59.0891 125.742 59.335 126.458 58.8866 126.813C58.4381 127.167 57.8667 126.813 57.44 126.487L49.4112 120.274C52.1309 123.89 51.762 130.299 49.1798 134.017C48.2587 130.236 47.3377 126.456 46.4167 122.675C48.0297 127.883 47.2847 133.771 45.0135 138.726C44.0002 134.216 43.8042 129.561 44.4348 124.983C43.9936 131.717 41.5416 139.196 37.5562 144.649C37.892 138.578 39.0503 132.58 40.9991 126.82L40.2758 127.435C39.0217 133.026 36.6929 138.32 33.4188 143.022C33.144 143.391 32.7968 143.796 32.3339 143.803C32.083 143.772 31.8517 143.652 31.6818 143.465C31.5119 143.278 31.4148 143.036 31.408 142.783C31.4085 142.277 31.5379 141.779 31.7841 141.337L37.7804 127.898C34.5327 133.04 30.352 137.532 26.3955 142.154C26.0745 142.595 25.6462 142.946 25.1514 143.174C24.9024 143.281 24.6227 143.293 24.3654 143.208C24.108 143.123 23.891 142.946 23.7554 142.711C23.6994 142.458 23.7035 142.195 23.7676 141.944C23.8317 141.693 23.9538 141.46 24.1243 141.264L30.7498 130.928C28.399 134.444 26.287 137.684 23.9362 141.199C23.0176 142.581 18.251 147.253 18.3957 145.604C18.7211 141.713 25.0573 135.116 25.0573 135.116C23.5673 134.957 12.3705 145.308 10.9456 144.903C11.2566 144.498 12.2909 142.588 12.7032 142.219Z" fill="#92E3A9"/>
<path d="M138.169 146.053C129.821 136.769 120.682 128.229 110.856 120.527C102.379 113.88 96.0431 110.039 85.0415 109.215C86.6039 111.334 86.9438 117.279 86.9149 118.531C86.9411 118.895 87.0777 119.242 87.3064 119.526C87.5352 119.811 87.8452 120.019 88.1951 120.122C88.9022 120.317 89.6447 120.347 90.3651 120.209C93.7285 119.804 94.7049 121.084 97.8369 119.818C95.4789 121.713 95.5006 122.711 93.7285 125.178C93.3885 125.648 93.0847 126.343 93.5042 126.733C93.9238 127.124 94.5169 126.82 94.9509 126.531C97.8007 124.701 98.307 125.004 101.157 123.174C98.1262 126.531 100.267 130.827 102.517 134.747L106.263 123.688C104.202 128.751 104.433 134.668 106.263 139.803C107.659 135.4 108.26 130.783 108.036 126.169C107.884 132.917 109.677 140.584 113.171 146.364C113.368 140.279 112.738 134.196 111.298 128.281L111.978 128.968C112.74 134.644 114.599 140.118 117.453 145.083C117.692 145.481 117.996 145.915 118.458 145.959C118.712 145.952 118.955 145.854 119.142 145.682C119.33 145.511 119.449 145.278 119.478 145.026C119.511 144.53 119.424 144.034 119.225 143.579L114.43 129.67C117.214 135.08 120.983 139.919 124.556 144.859C124.838 145.324 125.234 145.71 125.706 145.98C125.946 146.112 126.226 146.151 126.493 146.09C126.76 146.029 126.995 145.871 127.153 145.648C127.236 145.396 127.258 145.128 127.217 144.866C127.175 144.605 127.071 144.357 126.914 144.143L121.214 133.294C123.247 137.004 125.077 140.411 127.109 144.143C127.905 145.59 132.238 150.653 132.245 149.018C132.245 145.105 126.516 137.981 126.516 137.981C128.021 137.981 138.27 149.243 139.724 148.96C139.391 148.454 138.559 146.458 138.169 146.053Z" fill="#92E3A9"/>
<path d="M72.0725 84.6581C68.3363 72.7445 63.576 61.1766 57.8449 50.0839C52.8975 40.5217 48.7385 34.3952 39.0389 29.1078C39.3207 30.3963 39.8855 31.606 40.6924 32.6493C41.4993 33.6926 42.5281 34.5434 43.7042 35.1403C45.621 36.0878 46.8651 38.4241 48.4202 39.8924C45.7222 39.0317 42.9664 38.6772 40.2685 37.8165C39.0678 37.4332 37.4186 37.2234 36.8762 38.359C36.756 38.6985 36.7422 39.0666 36.8365 39.4143C36.9308 39.7619 37.1289 40.0725 37.4042 40.3047C37.9624 40.7689 38.6173 41.1025 39.321 41.2812C42.5512 42.3065 45.9024 42.9023 49.2882 43.0533C46.3949 43.7766 42.9447 45.7006 40.3119 47.1906C39.8128 47.4727 39.2414 47.979 39.4584 48.507C39.6754 49.0351 40.3481 49.0061 40.905 48.9338L50.959 47.4872C46.8072 49.2882 43.9574 55.0458 44.3697 59.552L52.3767 51.0531C48.4057 54.7854 46.149 60.2753 45.6788 65.7074C48.7679 62.2819 51.222 58.3337 52.9264 54.0476C49.9825 60.1234 48.4274 67.8339 49.2014 74.539C51.9022 69.0949 53.8489 63.3082 54.9879 57.3387C55.0964 57.6352 55.2121 57.939 55.3278 58.2428C53.6524 63.7202 53.0651 69.4725 53.5991 75.1755C53.5926 75.4072 53.6394 75.6373 53.736 75.848C53.8325 76.0587 53.9763 76.2444 54.156 76.3907C54.389 76.4894 54.6499 76.5007 54.8905 76.4222C55.1311 76.3438 55.3352 76.181 55.4652 75.9639C55.7122 75.5211 55.8464 75.0243 55.8558 74.5173L57.3025 59.8775C57.5918 65.9461 59.0095 71.9206 60.1957 77.8879C60.2518 78.4284 60.4488 78.9447 60.7671 79.3852C60.9305 79.6028 61.1683 79.7527 61.4352 79.806C61.702 79.8594 61.9792 79.8126 62.2137 79.6745C62.391 79.4827 62.5201 79.2515 62.5905 79C62.661 78.7485 62.6706 78.4838 62.6188 78.2279C62.397 74.1436 62.1751 70.0448 61.9533 65.9316C62.2571 70.1557 62.5031 74.011 62.8141 78.2279C62.9298 79.877 64.6947 83.0668 65.4759 84.5279C67.0454 87.479 69.0345 87.0595 72.2822 87.8551C72.1882 87.3199 72.2316 85.15 72.0725 84.6581Z" fill="#92E3A9"/>
<path d="M4.13917 83.7974C16.6163 84.0144 25.1658 83.5514 37.4115 85.9673C47.9863 88.0215 58.9372 92.0576 66.7706 99.8332C64.145 100.036 59.4363 103.681 58.5032 104.52C58.2123 104.738 57.8622 104.862 57.4993 104.876C57.1364 104.89 56.7777 104.794 56.4707 104.6C55.8414 104.238 57.0276 105.113 56.6226 104.513C54.7203 101.707 51.5594 97.1714 50.4672 93.9671C50.5829 96.9905 49.7439 100.802 49.0206 103.746C48.8904 104.303 48.5649 104.99 47.9935 104.932C47.4221 104.875 47.2702 104.209 47.1834 103.696C46.7012 100.349 46.219 96.9978 45.7368 93.6416C45.187 98.1334 40.4566 102.488 36.0227 103.363L41.9249 93.2872C39.4584 98.1478 34.8292 101.866 29.7516 103.84C32.1651 99.8882 35.2663 96.3999 38.9087 93.5404C33.9106 98.0683 26.9452 101.735 20.2907 102.886C24.7543 98.7575 29.757 95.2537 35.162 92.4698L34.2 92.3975C29.414 95.5446 24.0606 97.7288 18.439 98.8278C18.219 98.8962 17.9864 98.9142 17.7585 98.8804C17.5306 98.8465 17.3133 98.7618 17.1226 98.6325C16.9572 98.4417 16.8661 98.1978 16.8661 97.9453C16.8661 97.6929 16.9572 97.4489 17.1226 97.2582C17.4781 96.8958 17.918 96.6274 18.4029 96.477L32.059 90.9943C26.1495 92.4409 20.0231 92.7519 13.9762 93.3161C13.4391 93.4106 12.8869 93.3683 12.3704 93.1932C12.1108 93.1009 11.8939 92.9168 11.7607 92.6756C11.6275 92.4345 11.5871 92.1529 11.6471 91.884C11.8352 91.3921 12.4283 91.2041 12.9419 91.0811L24.8909 88.2674C20.8115 89.1643 17.043 90.0178 12.9057 90.9364C11.2855 91.2909 4.60932 91.3343 5.86065 90.2131C8.80452 87.6454 17.9472 87.3199 17.9472 87.3199C16.9852 86.1626 1.73778 85.8154 1 84.5351C1.52802 84.4266 3.60392 83.7829 4.13917 83.7974Z" fill="#92E3A9"/>
<path d="M85.1716 88.9256C88.6812 76.9448 91.1448 64.6821 92.5349 52.2755C93.7356 41.5705 93.6778 34.1927 88.6001 24.3702C88.1185 25.5983 87.916 26.9182 88.0073 28.2342C88.0986 29.5503 88.4815 30.8295 89.1281 31.9794C90.1914 33.8311 89.931 36.4711 90.4012 38.547C88.6363 36.3337 86.5459 34.511 84.781 32.2904C83.9999 31.3139 82.7413 30.2217 81.6563 30.8438C81.3607 31.0555 81.1371 31.3528 81.0155 31.6955C80.894 32.0382 80.8803 32.4099 80.9764 32.7606C81.1804 33.4576 81.5417 34.0985 82.0325 34.6339C84.1438 37.2875 86.598 39.6493 89.3307 41.6573C86.4808 40.6447 82.5822 40.3336 79.566 40.1094C78.9946 40.066 78.2423 40.1673 78.1193 40.7314C77.9964 41.2956 78.5823 41.6428 79.0669 41.8743L88.224 46.2141C83.7756 45.404 78.2061 48.6155 76.0507 52.5865L87.4211 49.9681C82.0469 50.865 77.1212 54.1778 73.6782 58.4309C78.1563 57.3062 82.3984 55.3934 86.206 52.7818C80.4195 56.1958 74.8066 61.7509 71.7397 67.7543C77.0167 64.7317 81.8568 61.0036 86.1264 56.6732C86.0541 56.9842 85.9817 57.2953 85.9022 57.6135C81.4665 61.2397 77.7811 65.6966 75.0525 70.7344C74.9173 70.938 74.8336 71.1714 74.8084 71.4146C74.7832 71.6577 74.8173 71.9033 74.9078 72.1304C75.0461 72.3421 75.2561 72.4967 75.4994 72.5659C75.7426 72.635 76.0026 72.6139 76.2315 72.5065C76.6845 72.2789 77.0726 71.9405 77.3599 71.5228L86.6689 60.1306C83.5369 65.3385 81.3959 71.0888 79.0524 76.7017C78.8029 77.1839 78.6785 77.7212 78.6908 78.264C78.7091 78.5349 78.8246 78.7901 79.0159 78.9827C79.2072 79.1754 79.4616 79.2926 79.7323 79.3128C80.2603 79.3128 80.6148 78.7704 80.8824 78.3147C82.9752 74.7994 85.0631 71.2793 87.1463 67.7543C85.0559 71.436 83.1102 74.7777 81.0271 78.4593C80.1094 79.8423 79.491 81.4018 79.2115 83.0379C78.8788 86.3651 81.2947 89.2656 83.5514 91.7176C84.1383 90.8149 84.6791 89.8831 85.1716 88.9256Z" fill="#92E3A9"/>
<path d="M90.2132 99.674C102.283 96.4795 114.052 92.2419 125.388 87.0089C135.167 82.4954 141.453 78.6402 147.239 69.1937C145.94 69.4186 144.706 69.9291 143.628 70.6884C142.55 71.4476 141.654 72.4367 141.004 73.5842C139.97 75.4504 137.583 76.5932 136.042 78.076C137.026 75.4214 137.489 72.6873 138.487 70.0255C138.921 68.8465 139.21 67.2046 138.096 66.6115C137.761 66.4695 137.391 66.4329 137.034 66.5065C136.677 66.5802 136.352 66.7606 136.1 67.0238C135.61 67.5609 135.247 68.201 135.037 68.8972C133.851 72.0768 133.09 75.3989 132.773 78.7776C132.158 75.812 130.415 72.3184 129.041 69.6205C128.78 69.1142 128.317 68.521 127.76 68.7163C127.203 68.9116 127.225 69.5843 127.276 70.1123C127.608 73.4878 127.939 76.8632 128.267 80.2387C126.661 76.0146 121.034 72.9043 116.513 73.1213L124.643 81.4972C121.091 77.3599 115.71 74.8572 110.307 74.1484C113.587 77.3971 117.42 80.035 121.627 81.9385C115.695 78.7342 108.05 76.8319 101.316 77.302C106.656 80.2472 112.372 82.4519 118.307 83.8552L117.388 84.1518C111.991 82.2327 106.27 81.3898 100.549 81.6708C100.319 81.6528 100.087 81.6885 99.8723 81.775C99.6577 81.8616 99.4661 81.9968 99.3125 82.1699C99.2022 82.3969 99.178 82.6563 99.2445 82.8997C99.3111 83.1432 99.4637 83.3542 99.6741 83.4936C100.11 83.7651 100.608 83.9218 101.121 83.9493L115.681 86.0179C109.605 86.0179 103.573 87.1825 97.5621 88.0794C97.0197 88.116 96.4951 88.2875 96.0359 88.5785C95.8099 88.7344 95.6491 88.9678 95.5837 89.2344C95.5184 89.501 95.5532 89.7824 95.6815 90.0251C95.8668 90.2143 96.0951 90.3559 96.347 90.4378C96.5989 90.5196 96.8669 90.5394 97.1281 90.4952L109.424 90.3795C105.193 90.5025 101.331 90.5748 97.1281 90.6905C95.4685 90.6199 93.8126 90.8983 92.2674 91.5079C89.2512 92.9545 88.0216 96.5132 87.0813 99.7247C87.5225 99.674 89.6925 99.8115 90.2132 99.674Z" fill="#92E3A9"/>
<path d="M149.004 80.8101C136.542 81.5698 124.17 83.414 112.028 86.3217C101.555 88.8244 94.6037 91.3849 87.1174 99.5004C89.7503 99.5945 94.6109 103.023 95.5802 103.84C95.8799 104.047 96.2357 104.158 96.6 104.158C96.9644 104.158 97.3201 104.047 97.6199 103.84C98.2039 103.407 98.6833 102.848 99.0231 102.206C100.802 99.3189 102.189 96.2077 103.146 92.9545C103.146 95.9851 104.195 99.7536 105.005 102.669C105.164 103.218 105.511 103.891 106.083 103.804C106.654 103.717 106.806 103.081 106.806 102.531C107.148 99.1557 107.486 95.7802 107.819 92.4048C108.542 96.8604 113.475 101.012 117.945 101.692L111.616 91.884C114.285 96.6289 119.073 100.144 124.23 101.902C121.665 98.0679 118.434 94.7241 114.69 92.0286C119.883 96.3685 126.986 99.703 133.691 100.564C129.056 96.6303 123.907 93.3453 118.386 90.799L119.341 90.6833C124.26 93.6215 129.704 95.5723 135.369 96.4264C135.592 96.4875 135.826 96.4972 136.052 96.4546C136.279 96.412 136.493 96.3182 136.679 96.1804C136.833 95.9792 136.909 95.7285 136.891 95.4755C136.874 95.2225 136.765 94.9845 136.585 94.8062C136.214 94.4609 135.765 94.2125 135.275 94.0828L121.395 89.1933C127.362 90.3723 133.496 90.4301 139.572 90.7339C140.11 90.8053 140.658 90.7381 141.163 90.5386C141.412 90.4287 141.612 90.2328 141.728 89.987C141.843 89.7412 141.866 89.4619 141.792 89.2005C141.59 88.7159 140.99 88.5568 140.469 88.4772L128.433 86.1626C132.599 86.8859 136.389 87.5658 140.577 88.2819C142.212 88.5567 148.881 88.2819 147.586 87.2837C144.534 84.8462 135.384 84.9113 135.384 84.9113C136.295 83.7178 151.514 82.7413 152.201 81.396C151.146 81.1471 150.079 80.9516 149.004 80.8101Z" fill="#92E3A9"/>
<path d="M98.3504 171.506C97.9824 170.985 97.503 170.553 96.9471 170.24C94.4583 168.593 91.741 167.321 88.8822 166.465C91.544 166.501 94.8712 165.662 97.4462 165.018C97.9381 164.895 98.5312 164.598 98.4661 164.099C98.401 163.6 97.8223 163.47 97.3594 163.419C94.4083 163.058 91.4548 162.706 88.4989 162.363C92.4337 161.777 96.1587 157.532 96.8242 153.611C94.4589 155.058 92.101 156.505 89.7357 158.002C89.2153 158.377 88.6691 158.716 88.101 159.014L89.7357 158.002C93.1486 155.523 95.7227 152.06 97.1135 148.078C94.3677 149.851 91.8904 152.01 89.7574 154.487C89.28 155.13 88.7954 155.745 88.3108 156.316C88.7737 155.694 89.2583 155.08 89.7574 154.487C93.0115 150.151 95.186 145.103 96.1009 139.76C92.5644 143.769 89.5907 148.242 87.262 153.054C87.262 152.772 87.2114 152.49 87.1824 152.215C89.8462 147.943 91.6496 143.191 92.4915 138.227C92.5495 138.033 92.5621 137.828 92.5282 137.629C92.4944 137.429 92.415 137.24 92.2962 137.076C92.1247 136.936 91.9076 136.864 91.6863 136.873C91.4649 136.883 91.2547 136.973 91.0956 137.127C90.7814 137.446 90.5525 137.839 90.4301 138.27C88.916 142.306 87.4067 146.344 85.9022 150.385C87.0378 145.156 87.1897 139.767 87.5586 134.436C87.6269 133.964 87.5771 133.482 87.4139 133.033C87.3223 132.814 87.1547 132.636 86.9421 132.531C86.7294 132.426 86.486 132.401 86.2566 132.462C85.8154 132.635 85.6707 133.185 85.5695 133.612L84.1228 140.65C84.8461 136.997 84.7449 137.185 85.4465 133.532C85.8199 132.116 85.8938 130.638 85.6635 129.192C85.1716 127.08 83.4935 125.576 81.6274 124.375C80.962 123.956 80.2676 123.558 79.5877 123.189C79.5877 123.297 79.5226 123.5 79.4647 123.746C79.2405 123.297 79.0307 122.885 78.9439 122.697C77.4177 124.064 75.7975 125.59 74.9657 127.42C74.5991 128.199 74.4019 129.047 74.3871 129.908C74.3967 130.635 74.5212 131.355 74.756 132.042C74.9874 132.766 75.284 133.416 75.5805 134.082C77.0778 137.474 76.68 136.519 78.1845 139.919C76.6727 136.664 76.9621 137.453 75.4431 134.19C75.3177 133.809 75.0615 133.483 74.7198 133.272C74.667 133.241 74.6074 133.223 74.5462 133.221C74.3085 133.211 74.0754 133.289 73.8914 133.44C73.7073 133.59 73.5851 133.804 73.548 134.039C73.4825 134.513 73.5424 134.997 73.7216 135.442C73.982 136.302 74.2352 137.17 74.5028 138.038C75.6558 142.334 77.1382 146.534 78.9367 150.602L74.1845 143.543C73.3744 142.306 72.5499 141.076 71.7325 139.832C71.512 139.449 71.2048 139.122 70.8356 138.877C70.6451 138.762 70.419 138.719 70.1994 138.758C69.9798 138.796 69.7818 138.913 69.6422 139.087C69.5616 139.275 69.5262 139.478 69.5388 139.682C69.5513 139.885 69.6115 140.083 69.7145 140.259C70.8022 142.977 72.2392 145.543 73.9893 147.89C75.2221 149.586 76.5758 151.191 78.0398 152.693L78.1483 153.525C76.8359 151.892 75.4328 150.334 73.9459 148.859C71.6587 146.562 69.1836 144.459 66.5464 142.574C68.2081 146.599 70.6518 150.255 73.7361 153.329C74.5028 154.11 75.2984 154.848 76.1086 155.535C75.3346 154.964 74.5317 154.414 73.7072 153.915C71.7261 152.697 69.6246 151.686 67.4361 150.899C69.0314 153.375 71.1163 155.5 73.5625 157.141C74.5896 157.824 75.6824 158.404 76.8246 158.87C77.4394 159.087 78.0687 159.289 78.6835 159.499C78.0516 159.327 77.4308 159.117 76.8246 158.87L73.5336 157.756L68.9622 156.208C69.9092 158.274 71.447 160.013 73.3817 161.206C75.0446 162.346 77.0301 162.922 79.0452 162.848L73.2008 164.96L70.6548 165.879C70.2208 166.038 69.6856 166.327 69.7362 166.79C69.7868 167.253 70.4595 167.448 70.9369 167.463C71.6168 167.463 72.3401 167.499 73.1068 167.499C75.2903 167.58 77.4756 167.4 79.6166 166.964C77.1583 168.418 74.8954 170.181 72.8826 172.208L72.6222 172.461C72.1431 172.891 71.7694 173.425 71.53 174.023C71.4175 174.321 71.3987 174.646 71.4763 174.955C71.5539 175.264 71.724 175.542 71.964 175.752C72.1744 175.905 72.4272 175.988 72.6873 175.991C73.5135 175.85 74.2623 175.419 74.7994 174.775C76.5281 172.989 78.5244 171.578 80.2604 169.792C79.6672 171.571 79.6672 173.9 78.575 175.426C77.9067 176.375 77.4579 177.46 77.2615 178.604C77.0651 179.747 77.1259 180.92 77.4394 182.037C79.4488 178.935 81.1587 175.648 82.546 172.222C82.6328 171.983 82.7196 171.752 82.8136 171.499C82.8136 171.911 82.7485 172.316 82.7124 172.699C82.6762 173.083 82.6328 173.336 82.6039 173.654C82.2245 177.052 82.0433 180.47 82.0614 183.889C82.0203 184.592 82.1338 185.296 82.3941 185.951C82.5514 186.285 82.8027 186.567 83.1174 186.761C83.3962 186.939 83.7309 187.009 84.0577 186.956C84.47 182.688 84.8678 178.428 85.2801 174.161C86.0541 176.837 87.1969 180.547 87.6309 181.755C88.3542 183.636 87.913 185.574 89.4753 186.819C90.242 182.327 88.9907 177.777 87.602 173.408C89.6649 175.989 91.9235 178.407 94.3577 180.641C94.4086 179.484 94.2022 178.329 93.7531 177.261C93.3041 176.193 92.6237 175.238 91.761 174.464C90.3505 173.228 89.8225 170.956 88.8678 169.358C90.9654 170.703 93.2076 171.636 95.3125 172.974C96.2455 173.575 97.5981 174.117 98.3214 173.278C98.5042 173.02 98.6048 172.713 98.6099 172.397C98.6151 172.08 98.5246 171.77 98.3504 171.506ZM76.1303 155.55C76.7378 155.984 77.3309 156.447 77.9024 156.939C77.302 156.505 76.7089 156.034 76.1303 155.55Z" fill="#92E3A9"/>
<path d="M98.3504 171.506C97.9824 170.985 97.503 170.553 96.9471 170.24C94.4583 168.593 91.741 167.321 88.8822 166.465C91.544 166.501 94.8712 165.662 97.4462 165.018C97.9381 164.895 98.5312 164.598 98.4661 164.099C98.401 163.6 97.8223 163.47 97.3594 163.419C94.4083 163.058 91.4548 162.706 88.4989 162.363C92.4337 161.777 96.1587 157.532 96.8242 153.611C94.4589 155.058 92.101 156.505 89.7357 158.002C89.2153 158.377 88.6691 158.716 88.101 159.014L89.7357 158.002C93.1486 155.523 95.7227 152.06 97.1135 148.078C94.3677 149.851 91.8904 152.01 89.7574 154.487C89.28 155.13 88.7954 155.745 88.3108 156.316C88.7737 155.694 89.2583 155.08 89.7574 154.487C93.0115 150.151 95.186 145.103 96.1009 139.76C92.5644 143.769 89.5907 148.242 87.262 153.054C87.262 152.772 87.2114 152.49 87.1824 152.215C89.8462 147.943 91.6496 143.191 92.4915 138.227C92.5495 138.033 92.5621 137.828 92.5282 137.629C92.4944 137.429 92.415 137.24 92.2962 137.076C92.1247 136.936 91.9076 136.864 91.6863 136.873C91.4649 136.883 91.2547 136.973 91.0956 137.127C90.7814 137.446 90.5525 137.839 90.4301 138.27C88.916 142.306 87.4067 146.344 85.9022 150.385C87.0378 145.156 87.1897 139.767 87.5586 134.436C87.6269 133.964 87.5771 133.482 87.4139 133.033C87.3223 132.814 87.1547 132.636 86.9421 132.531C86.7294 132.426 86.486 132.401 86.2566 132.462C85.8154 132.635 85.6707 133.185 85.5695 133.612L84.1228 140.65C84.8461 136.997 84.7449 137.185 85.4465 133.532C85.8199 132.116 85.8938 130.638 85.6635 129.192C85.1716 127.08 83.4935 125.576 81.6274 124.375C80.962 123.956 80.2676 123.558 79.5877 123.189C79.5877 123.297 79.5226 123.5 79.4647 123.746C79.2405 123.297 79.0307 122.885 78.9439 122.697C77.4177 124.064 75.7975 125.59 74.9657 127.42C74.5991 128.199 74.4019 129.047 74.3871 129.908C74.3967 130.635 74.5212 131.355 74.756 132.042C74.9874 132.766 75.284 133.416 75.5805 134.082C77.0778 137.474 76.68 136.519 78.1845 139.919C76.6727 136.664 76.9621 137.453 75.4431 134.19C75.3177 133.809 75.0615 133.483 74.7198 133.272C74.667 133.241 74.6074 133.223 74.5462 133.221C74.3085 133.211 74.0754 133.289 73.8914 133.44C73.7073 133.59 73.5851 133.804 73.548 134.039C73.4825 134.513 73.5424 134.997 73.7216 135.442C73.982 136.302 74.2352 137.17 74.5028 138.038C75.6558 142.334 77.1382 146.534 78.9367 150.602L74.1845 143.543C73.3744 142.306 72.5499 141.076 71.7325 139.832C71.512 139.449 71.2048 139.122 70.8356 138.877C70.6451 138.762 70.419 138.719 70.1994 138.758C69.9798 138.796 69.7818 138.913 69.6422 139.087C69.5616 139.275 69.5262 139.478 69.5388 139.682C69.5513 139.885 69.6115 140.083 69.7145 140.259C70.8022 142.977 72.2392 145.543 73.9893 147.89C75.2221 149.586 76.5758 151.191 78.0398 152.693L78.1483 153.525C76.8359 151.892 75.4328 150.334 73.9459 148.859C71.6587 146.562 69.1836 144.459 66.5464 142.574C68.2081 146.599 70.6518 150.255 73.7361 153.329C74.5028 154.11 75.2984 154.848 76.1086 155.535C75.3346 154.964 74.5317 154.414 73.7072 153.915C71.7261 152.697 69.6246 151.686 67.4361 150.899C69.0314 153.375 71.1163 155.5 73.5625 157.141C74.5896 157.824 75.6824 158.404 76.8246 158.87C77.4394 159.087 78.0687 159.289 78.6835 159.499C78.0516 159.327 77.4308 159.117 76.8246 158.87L73.5336 157.756L68.9622 156.208C69.9092 158.274 71.447 160.013 73.3817 161.206C75.0446 162.346 77.0301 162.922 79.0452 162.848L73.2008 164.96L70.6548 165.879C70.2208 166.038 69.6856 166.327 69.7362 166.79C69.7868 167.253 70.4595 167.448 70.9369 167.463C71.6168 167.463 72.3401 167.499 73.1068 167.499C75.2903 167.58 77.4756 167.4 79.6166 166.964C77.1583 168.418 74.8954 170.181 72.8826 172.208L72.6222 172.461C72.1431 172.891 71.7694 173.425 71.53 174.023C71.4175 174.321 71.3987 174.646 71.4763 174.955C71.5539 175.264 71.724 175.542 71.964 175.752C72.1744 175.905 72.4272 175.988 72.6873 175.991C73.5135 175.85 74.2623 175.419 74.7994 174.775C76.5281 172.989 78.5244 171.578 80.2604 169.792C79.6672 171.571 79.6672 173.9 78.575 175.426C77.9067 176.375 77.4579 177.46 77.2615 178.604C77.0651 179.747 77.1259 180.92 77.4394 182.037C79.4488 178.935 81.1587 175.648 82.546 172.222C82.6328 171.983 82.7196 171.752 82.8136 171.499C82.8136 171.911 82.7485 172.316 82.7124 172.699C82.6762 173.083 82.6328 173.336 82.6039 173.654C82.2245 177.052 82.0433 180.47 82.0614 183.889C82.0203 184.592 82.1338 185.296 82.3941 185.951C82.5514 186.285 82.8027 186.567 83.1174 186.761C83.3962 186.939 83.7309 187.009 84.0577 186.956C84.47 182.688 84.8678 178.428 85.2801 174.161C86.0541 176.837 87.1969 180.547 87.6309 181.755C88.3542 183.636 87.913 185.574 89.4753 186.819C90.242 182.327 88.9907 177.777 87.602 173.408C89.6649 175.989 91.9235 178.407 94.3577 180.641C94.4086 179.484 94.2022 178.329 93.7531 177.261C93.3041 176.193 92.6237 175.238 91.761 174.464C90.3505 173.228 89.8225 170.956 88.8678 169.358C90.9654 170.703 93.2076 171.636 95.3125 172.974C96.2455 173.575 97.5981 174.117 98.3214 173.278C98.5042 173.02 98.6048 172.713 98.6099 172.397C98.6151 172.08 98.5246 171.77 98.3504 171.506ZM76.1303 155.55C76.7378 155.984 77.3309 156.447 77.9024 156.939C77.302 156.505 76.7089 156.034 76.1303 155.55Z" fill="#92E3A9"/>
<path d="M316.624 304.313H252.632C252.914 304.038 258.99 295.568 267.352 283.858H296.407L316.624 304.313Z" fill="#92E3A9"/>
<path opacity="0.4" d="M316.624 304.313H252.632C252.914 304.038 258.99 295.568 267.352 283.858H296.407L316.624 304.313Z" fill="black"/>
<path d="M324.349 304.342V312.74L316.052 304.342L295.836 283.887H265.739L269.768 277.42H297.427L324.349 304.342Z" fill="#999999" stroke="#263238" stroke-linecap="round" stroke-linejoin="round"/>
<path d="M296.386 305.217C296.139 305.217 295.896 305.167 295.67 305.07C295.443 304.973 295.239 304.831 295.069 304.653L268.972 277.059C268.683 276.755 268.508 276.36 268.479 275.941C268.45 275.522 268.568 275.107 268.813 274.766L283.945 253.493C284.147 253.208 284.429 252.987 284.754 252.859C285.08 252.73 285.436 252.698 285.779 252.768C286.122 252.838 286.438 253.006 286.687 253.251C286.937 253.497 287.11 253.81 287.185 254.151L298.136 303.018C298.222 303.405 298.178 303.809 298.012 304.168C297.846 304.527 297.567 304.822 297.217 305.007C296.962 305.145 296.676 305.217 296.386 305.217ZM272.618 275.656L293.181 297.398L284.559 258.896L272.618 275.656Z" fill="#999999" stroke="#263238" stroke-linecap="round" stroke-linejoin="round"/>
<path d="M252.061 304.313C251.28 305.094 102.191 304.573 52.2396 304.378L36.1387 304.313V294.324H245.32L307.525 209.574L287.93 185.415L295.026 185.69L317.962 211.968C317.962 211.968 290.831 250.152 271.374 277.42L266.759 283.887L252.061 304.313Z" fill="#92E3A9" stroke="#263238" stroke-linecap="round" stroke-linejoin="round"/>
<path d="M287.952 185.415L232.177 263.576H65.0129C65.0129 263.576 34.6338 294.324 36.1383 294.324C37.6428 294.324 244.307 295.344 245.32 294.324C246.332 293.304 307.524 209.574 307.524 209.574L287.952 185.415Z" fill="#92E3A9"/>
<path opacity="0.2" d="M70.7125 271.128L61.7724 276.871C60.5283 277.674 59.1034 278.853 59.4144 280.306C59.6603 281.478 60.9261 282.107 62.0689 282.476C67.3636 284.125 73.085 283.619 78.5387 282.635C83.9925 281.652 89.3884 280.191 94.9362 279.966C97.7064 279.858 102.647 280.277 105.135 281.536C108.223 283.098 108.795 285.398 112.867 285.565L132.085 286.332C136.794 286.52 142.212 285.926 144.996 282.107C148.671 281.478 152.461 280.155 156.143 279.525C167.174 284.339 179.213 286.392 191.216 285.507C192.489 287.728 195.512 288.878 198.022 289.398C200.555 289.811 203.137 289.825 205.675 289.442C219.989 287.937 233.566 284.87 246.6 278.99C246.787 278.919 246.986 278.888 247.185 278.898C247.385 278.907 247.58 278.959 247.758 279.048C247.937 279.137 248.095 279.262 248.223 279.415C248.351 279.568 248.446 279.746 248.502 279.937C249.87 278.766 250.929 277.275 251.585 275.597C252.241 273.92 252.474 272.106 252.263 270.317C257.739 264.963 262.205 258.666 265.449 251.728C270.375 240.951 280.747 233.414 285.579 222.601C288.675 224.214 292.154 224.93 295.293 223.404C295.705 223.201 296.624 223.548 297.087 223.548C298.939 216.72 298.743 209.69 295.836 203.238C294.02 199.223 290.476 195.187 286.093 195.643C283.778 195.889 281.796 197.35 280.017 198.847C266.986 209.776 257.741 224.542 253.602 241.038C249.913 255.924 237.465 267.417 225.183 276.61L225.906 275.793C206.015 276.126 185.053 274.816 165.596 270.657C144.411 266.137 122.451 268.487 100.781 268.784C95.7173 268.856 89.9309 271.352 85.034 272.762C82.9147 273.363 80.6942 273.977 78.5242 273.551C75.7178 272.965 73.1573 269.594 70.7125 271.128Z" fill="black"/>
<g opacity="0.2">
<path opacity="0.2" d="M287.952 185.415L232.177 263.576H65.0129C65.0129 263.576 34.6338 294.324 36.1383 294.324C37.6428 294.324 244.307 295.344 245.32 294.324C246.332 293.304 307.524 209.574 307.524 209.574L287.952 185.415Z" fill="black"/>
<g opacity="0.2">
<path opacity="0.2" d="M70.7125 271.128L61.7724 276.871C60.5283 277.674 59.1034 278.853 59.4144 280.306C59.6603 281.478 60.9261 282.107 62.0689 282.476C67.3636 284.125 73.085 283.619 78.5387 282.635C83.9925 281.652 89.3884 280.191 94.9362 279.966C97.7064 279.858 102.647 280.277 105.135 281.536C108.223 283.098 108.795 285.398 112.867 285.565L132.085 286.332C136.794 286.52 142.212 285.926 144.996 282.107C148.671 281.478 152.461 280.155 156.143 279.525C167.174 284.339 179.213 286.392 191.216 285.507C192.489 287.728 195.512 288.878 198.022 289.398C200.555 289.811 203.137 289.825 205.675 289.442C219.989 287.937 233.566 284.87 246.6 278.99C246.787 278.919 246.986 278.888 247.185 278.898C247.385 278.907 247.58 278.959 247.758 279.048C247.937 279.137 248.095 279.262 248.223 279.415C248.351 279.568 248.446 279.746 248.502 279.937C249.87 278.766 250.929 277.275 251.585 275.597C252.241 273.92 252.474 272.106 252.263 270.317C257.739 264.963 262.205 258.666 265.449 251.728C270.375 240.951 280.747 233.414 285.579 222.601C288.675 224.214 292.154 224.93 295.293 223.404C295.705 223.201 296.624 223.548 297.087 223.548C298.939 216.72 298.743 209.69 295.836 203.238C294.02 199.223 290.476 195.187 286.093 195.643C283.778 195.889 281.796 197.35 280.017 198.847C266.986 209.776 257.741 224.542 253.602 241.038C249.913 255.924 237.465 267.417 225.183 276.61L225.906 275.793C206.015 276.126 185.053 274.816 165.596 270.657C144.411 266.137 122.451 268.487 100.781 268.784C95.7173 268.856 89.9309 271.352 85.034 272.762C82.9147 273.363 80.6942 273.977 78.5242 273.551C75.7178 272.965 73.1573 269.594 70.7125 271.128Z" fill="black"/>
</g>
<path opacity="0.2" d="M287.952 185.415L232.177 263.576H65.0129C65.0129 263.576 34.6338 294.324 36.1383 294.324C37.6428 294.324 244.307 295.344 245.32 294.324C246.332 293.304 307.524 209.574 307.524 209.574L287.952 185.415Z" stroke="#263238" stroke-linecap="round" stroke-linejoin="round"/>
</g>
<path d="M287.952 185.415L232.177 263.576H65.0129C65.0129 263.576 34.6338 294.324 36.1383 294.324C37.6428 294.324 244.307 295.344 245.32 294.324C246.332 293.304 307.524 209.574 307.524 209.574L287.952 185.415Z" stroke="#263238" stroke-linecap="round" stroke-linejoin="round"/>
<path d="M324.493 304.342H52.2393V312.74H324.493V304.342Z" fill="#BFBFBF" stroke="#263238" stroke-linecap="round" stroke-linejoin="round"/>
<path d="M240.257 282.346C240.503 283.069 240.741 283.843 240.98 284.596" stroke="#263238" stroke-linecap="round" stroke-linejoin="round"/>
<path d="M234.036 267.663C236.159 271.723 237.996 275.926 239.533 280.241" stroke="#263238" stroke-linecap="round" stroke-linejoin="round"/>
<path d="M15.6686 312.74H1.47729" stroke="#263238" stroke-linecap="round" stroke-linejoin="round"/>
<path d="M27.4369 312.74H21.5708" stroke="#263238" stroke-linecap="round" stroke-linejoin="round"/>
<path d="M326.273 312.74H33.115" stroke="#263238" stroke-linecap="round" stroke-linejoin="round"/>
<path d="M270.795 189.806C270.899 189.826 270.994 189.876 271.07 189.95" stroke="#263238" stroke-linecap="round" stroke-linejoin="round"/>
<path d="M234.275 232.279L237.819 226.42L217.66 217.017C218.502 219.369 219.467 221.675 220.554 223.924C222.463 227.338 234.275 232.279 234.275 232.279Z" fill="#BFBFBF"/>
<path d="M234.275 232.279L237.819 226.42L217.66 217.017C218.502 219.369 219.467 221.675 220.554 223.924C222.463 227.338 234.275 232.279 234.275 232.279Z" stroke="#263238" stroke-linecap="round" stroke-linejoin="round"/>
<path d="M270.368 199.802C270.368 199.802 261.045 195.1 258.007 205.031C251.591 226.007 245.096 237.248 245.096 237.248C241.906 236.524 236.987 234.13 232.604 231.765L228.025 240.206L227.642 240.929C227.642 240.929 225.581 244.756 225.566 246.267C228.036 250.606 230.244 255.089 232.177 259.692C235.302 262.708 239.844 265.63 246.441 267.837C246.607 267.902 247.294 267.959 247.468 268.017C247.468 268.017 250.484 265.999 257.992 244.72C258.354 243.7 260.032 237.11 260.032 237.11C263.103 233.966 265.916 230.58 268.444 226.984C270.252 224.004 271.88 221.14 273.124 218.63C279.474 205.863 270.534 199.939 270.368 199.802ZM257.985 187.506C258.596 188.694 259.08 189.942 259.432 191.231L259.055 191.484C259.194 191.7 259.268 191.951 259.268 192.207C259.268 192.464 259.194 192.715 259.055 192.93C258.708 193.502 258.137 194.015 258.173 194.681C258.216 195.571 259.381 196.026 260.227 195.737C261.036 195.349 261.742 194.777 262.289 194.066C263.468 192.856 264.893 191.912 266.467 191.298C268.042 190.685 269.729 190.415 271.417 190.507C271.417 190.667 271.417 190.667 271.417 190.507C271.742 190.507 272.061 190.565 272.386 190.616C271.992 190.28 271.568 189.98 271.12 189.719L270.889 189.589H270.845L270.693 189.538C269.931 188.439 269.405 187.192 269.15 185.879C268.894 184.565 268.915 183.212 269.211 181.907C268.573 181.681 267.898 181.578 267.222 181.603C267.045 181.605 266.869 181.617 266.694 181.64C265.289 181.837 263.963 182.407 262.853 183.289C261.052 184.699 258.31 184.012 257.066 185.914C257.117 185.965 257.163 186.021 257.204 186.081C257.503 186.528 257.764 187 257.985 187.491V187.506Z" fill="#BFBFBF" stroke="#263238" stroke-linecap="round" stroke-linejoin="round"/>
<path d="M271.373 190.464C271.699 190.464 272.017 190.522 272.343 190.572C273.963 191.972 275.219 193.744 276.002 195.737C277.138 198.514 277.818 202.428 277.08 207.795C276.92 208.981 276.678 210.156 276.357 211.31C274.823 216.988 271.619 222.521 268.451 226.998C270.259 224.018 271.887 221.154 273.131 218.644C279.482 205.863 270.541 199.939 270.375 199.802C270.375 199.802 261.052 195.1 258.014 205.031C251.598 226.007 245.103 237.248 245.103 237.248C241.913 236.524 236.994 234.13 232.611 231.765L232.785 231.44L235.938 225.595L236.003 225.494C236.343 224.915 237.949 221.921 237.132 218.941V218.839C236.663 216.997 236.727 215.059 237.316 213.251C237.905 211.443 238.995 209.839 240.459 208.626C244.85 204.952 252.083 198.674 256.307 193.929C257.119 193.009 258.036 192.188 259.041 191.484C259.179 191.7 259.253 191.951 259.253 192.207C259.253 192.464 259.179 192.715 259.041 192.93C258.694 193.502 258.122 194.015 258.158 194.681C258.202 195.571 259.366 196.026 260.213 195.737C261.021 195.349 261.728 194.777 262.274 194.066C263.454 192.856 264.878 191.912 266.453 191.298C268.027 190.685 269.715 190.415 271.402 190.507" fill="#263238"/>
<path d="M271.373 190.464C271.699 190.464 272.017 190.522 272.343 190.572C273.963 191.972 275.219 193.744 276.002 195.737C277.138 198.514 277.818 202.428 277.08 207.795C276.92 208.981 276.678 210.156 276.357 211.31C274.823 216.988 271.619 222.521 268.451 226.998C270.259 224.018 271.887 221.154 273.131 218.644C279.482 205.863 270.541 199.939 270.375 199.802C270.375 199.802 261.052 195.1 258.014 205.031C251.598 226.007 245.103 237.248 245.103 237.248C241.913 236.524 236.994 234.13 232.611 231.765L232.785 231.44L235.938 225.595L236.003 225.494C236.343 224.915 237.949 221.921 237.132 218.941V218.839C236.663 216.997 236.727 215.059 237.316 213.251C237.905 211.443 238.995 209.839 240.459 208.626C244.85 204.952 252.083 198.674 256.307 193.929C257.119 193.009 258.036 192.188 259.041 191.484C259.179 191.7 259.253 191.951 259.253 192.207C259.253 192.464 259.179 192.715 259.041 192.93C258.694 193.502 258.122 194.015 258.158 194.681C258.202 195.571 259.366 196.026 260.213 195.737C261.021 195.349 261.728 194.777 262.274 194.066C263.454 192.856 264.878 191.912 266.453 191.298C268.027 190.685 269.715 190.415 271.402 190.507" stroke="#263238" stroke-linecap="round" stroke-linejoin="round"/>
<path d="M270.795 189.524C270.899 189.544 270.994 189.594 271.07 189.668" stroke="#263238" stroke-linecap="round" stroke-linejoin="round"/>
<path d="M270.621 189.459C270.724 189.62 270.837 189.775 270.961 189.921" stroke="#263238" stroke-linecap="round" stroke-linejoin="round"/>
<path d="M199.657 194.811L209.863 218.333L215.888 218.102L206.42 195.534L199.657 194.811Z" fill="#263238"/>
<path d="M199.657 194.811L198.963 195.31L209.299 218.999L215.143 218.666L215.888 218.102L209.863 218.333L199.657 194.811Z" fill="white"/>
<path d="M217.111 215.411L215.179 207.787C215.179 207.787 210.839 207.115 209.877 205.704C209.877 205.704 208.38 207.686 210.514 208.778C212.648 209.87 214.434 212.561 214.434 212.561L217.111 215.411Z" fill="#BFBFBF" stroke="#263238" stroke-linecap="round" stroke-linejoin="round"/>
<path d="M262.412 185.871C261.493 186.696 260.488 187.542 259.265 187.686C258.043 187.831 256.625 186.963 256.719 185.705C256.799 184.641 257.869 183.976 258.817 183.491C259.974 182.891 266.05 178.934 266.997 179.766C268.27 180.873 263.178 185.155 262.412 185.871Z" fill="#263238" stroke="#263238" stroke-linecap="round" stroke-linejoin="round"/>
<path d="M251.765 158.855C250.925 160.411 250.188 162.021 249.558 163.673C248.907 165.633 249.001 169.256 248.792 169.857C248.582 170.457 245.66 173.944 245.638 174.645C245.616 175.347 248.271 176.757 248.271 176.757C248.271 176.757 248.951 181.603 249.45 183.65C249.949 185.697 249.855 186.84 252.538 186.804C255.222 186.768 258.882 185.719 263.446 183.383C268.01 181.046 272.169 179.614 273.066 174.92C273.963 170.226 261.037 159.087 259.251 157.857C257.464 156.628 251.765 158.855 251.765 158.855Z" fill="#BFBFBF"/>
<path opacity="0.2" d="M246.101 176.634C249.334 177.842 252.951 177.148 256.227 176.092C259.504 175.036 262.737 173.604 266.18 173.35C267.42 173.371 268.656 173.205 269.847 172.859C270.997 172.396 272.017 171.209 271.713 170.002C271.582 169.569 271.338 169.179 271.006 168.871C270.675 168.563 270.267 168.35 269.826 168.251C268.938 168.065 268.025 168.038 267.128 168.172C261.696 168.663 255.96 168.671 250.585 169.575C248.256 169.973 241.71 175.173 246.101 176.634Z" fill="black"/>
<path d="M251.765 158.855C250.925 160.411 250.188 162.021 249.558 163.673C248.907 165.633 249.001 169.256 248.792 169.857C248.582 170.457 245.66 173.944 245.638 174.645C245.616 175.347 248.271 176.757 248.271 176.757C248.271 176.757 248.951 181.603 249.45 183.65C249.949 185.697 249.855 186.84 252.538 186.804C255.222 186.768 258.882 185.719 263.446 183.383C268.01 181.046 272.169 179.614 273.066 174.92C273.963 170.226 261.037 159.087 259.251 157.857C257.464 156.628 251.765 158.855 251.765 158.855Z" stroke="#263238" stroke-linecap="round" stroke-linejoin="round"/>
<path d="M250.549 169.965C250.585 170.884 250.925 171.622 251.273 171.615C251.62 171.607 251.931 170.826 251.895 169.9C251.858 168.974 251.504 168.237 251.171 168.251C250.839 168.266 250.506 169.054 250.549 169.965Z" fill="#263238"/>
<path d="M253.761 167.723C253.761 167.723 252.444 164.309 250.361 165.481" stroke="#263238" stroke-linecap="round" stroke-linejoin="round"/>
<path d="M248.98 178.508C248.98 178.508 251.49 179.549 252.828 177.488" stroke="#263238" stroke-linecap="round" stroke-linejoin="round"/>
<path d="M273.095 218.644C271.851 221.154 270.202 224.018 268.415 226.998C265.399 231.975 261.905 237.277 258.773 241.805C254.253 248.401 250.585 253.378 250.585 253.378C244.958 252.538 235.157 245.725 227.996 240.213C222.933 236.315 219.172 233.067 219.172 233.067L215.953 230.318C214.873 229.655 213.755 229.056 212.604 228.525C211.237 227.96 209.523 227.237 208.337 226.673C207.808 226.405 207.379 225.974 207.114 225.443C206.626 224.432 206.336 223.337 206.261 222.217C206.218 221.798 206.196 221.443 206.189 221.168C205.925 220.842 205.683 220.499 205.465 220.141C205.321 219.91 205.183 219.664 205.046 219.418C204.445 218.76 205.386 215.968 205.386 215.968L203.939 215.078C203.601 215.109 203.262 215.042 202.96 214.885C202.659 214.729 202.409 214.49 202.239 214.196C202.127 213.952 202.068 213.687 202.068 213.418C202.068 213.15 202.127 212.884 202.239 212.641C202.275 212.547 202.312 212.467 202.341 212.402L202.384 212.33C202.395 212.302 202.412 212.277 202.435 212.257L203.548 212.38H203.657C204.414 212.411 205.168 212.493 205.914 212.626H205.993H206.051H206.087C206.334 212.691 206.576 212.773 206.811 212.872L207.151 213.01H207.223C207.628 213.159 208.026 213.296 208.416 213.422L208.547 213.458L208.706 213.516H208.807L209.436 213.74L211.114 214.319L211.02 214.275H210.962C210.274 213.976 209.625 213.592 209.031 213.133C208.667 212.842 208.412 212.437 208.308 211.982V211.946C208.308 211.397 208.547 210.919 209.198 211.071C211.462 211.874 212.286 211.36 213.422 212.236C214.355 212.959 215.367 213.791 216.315 214.55L216.966 215.064L217.067 215.353C217.132 215.519 217.212 215.751 217.306 216.026C217.4 216.301 217.501 216.633 217.624 216.995L217.733 217.306C218.463 219.581 219.39 221.788 220.503 223.903C220.686 224.218 220.904 224.512 221.154 224.778C221.291 224.908 222.094 225.573 222.984 226.275C223.121 226.275 227.49 228.98 232.575 231.722C236.958 234.087 241.877 236.481 245.067 237.204C245.067 237.204 251.576 225.964 257.978 204.988C261.016 195.057 270.339 199.759 270.339 199.759C270.534 199.939 279.474 205.863 273.095 218.644Z" fill="#BFBFBF" stroke="#263238" stroke-linecap="round" stroke-linejoin="round"/>
<path d="M208.843 213.574L211.013 214.297C210.254 214.008 209.552 213.791 208.843 213.574Z" fill="white" stroke="#263238" stroke-linecap="round" stroke-linejoin="round"/>
<path d="M206.586 216.069L211.57 217.704" stroke="#263238" stroke-linecap="round" stroke-linejoin="round"/>
<path d="M209.863 223.881C208.831 223.223 207.914 222.4 207.151 221.443" stroke="#263238" stroke-linecap="round" stroke-linejoin="round"/>
<path d="M211.078 221.074C209.305 220.31 207.61 219.377 206.015 218.29" stroke="#263238" stroke-linecap="round" stroke-linejoin="round"/>
<path d="M271.374 190.464H271.366" stroke="#263238" stroke-linecap="round" stroke-linejoin="round"/>
<path d="M250.542 170.247C250.585 171.173 250.925 171.911 251.265 171.897C251.605 171.882 251.924 171.108 251.887 170.19C251.851 169.271 251.497 168.519 251.164 168.533C250.831 168.548 250.506 169.314 250.542 170.247Z" fill="#263238"/>
<path d="M253.761 168.005C253.761 168.005 252.444 164.591 250.361 165.763" stroke="#263238" stroke-linecap="round" stroke-linejoin="round"/>
<path d="M266.643 165.842L264.777 169.879C264.409 170.548 264.19 171.287 264.133 172.048C264.133 172.808 255.034 184.967 265.731 190.327C268.234 191.762 270.649 193.344 272.965 195.064C280.791 201.075 273.399 211.353 281.644 217.14C282.614 217.827 282.794 219.259 283.749 219.961C284.219 220.325 284.764 220.579 285.345 220.704C285.926 220.83 286.527 220.823 287.105 220.684C285.174 220.163 283.619 217.834 284.169 215.91C284.482 214.96 285.146 214.165 286.024 213.686C286.903 213.208 287.931 213.082 288.899 213.335C288.568 214.607 288.679 215.955 289.216 217.155C289.752 218.355 290.681 219.337 291.85 219.939C294.266 221.067 297.073 220.959 299.713 220.59C302.353 220.221 305.007 219.613 307.669 219.823C310.157 220.018 312.638 221.993 313.036 224.467C314.237 223.194 314.432 219.729 314.02 218.029C313.803 217.179 313.382 216.395 312.793 215.745C312.205 215.094 311.466 214.597 310.642 214.297C311.207 214.022 311.823 213.865 312.451 213.838C313.079 213.81 313.706 213.912 314.293 214.136C314.88 214.36 315.415 214.703 315.864 215.143C316.314 215.582 316.668 216.109 316.906 216.691C317.81 214.261 318.62 210.847 317.998 208.33C317.311 205.545 314.924 203.556 312.674 201.777C309.926 189.683 287.814 190.797 286.939 175.564C285.391 148.346 269.073 160.562 266.643 165.842Z" fill="#263238" stroke="#263238" stroke-linecap="round" stroke-linejoin="round"/>
<path d="M264.856 176.757C263.656 180.743 263.677 185.596 269.435 188.482C271.939 189.915 274.354 191.497 276.668 193.22C281.478 196.916 280.538 202.218 281.008 207.1" stroke="#BFBFBF" stroke-width="0.75" stroke-linecap="round" stroke-linejoin="round"/>
<path d="M267.475 170.732C267.475 170.985 266.751 171.81 265.804 173.972" stroke="#BFBFBF" stroke-width="0.75" stroke-linecap="round" stroke-linejoin="round"/>
<path d="M269.862 179.462C269.189 180.909 270.079 182.681 271.366 183.636C272.654 184.591 274.259 184.981 275.742 185.596C279.3 187.051 282.174 189.8 283.784 193.29C285.395 196.78 285.623 200.751 284.422 204.402" stroke="#BFBFBF" stroke-width="0.75" stroke-linecap="round" stroke-linejoin="round"/>
<path d="M283.945 178.898C286.275 181.557 288.951 183.893 291.901 185.842C296.328 188.685 301.152 190.84 305.709 193.466C308.87 195.288 312.219 197.755 312.703 201.371" stroke="#BFBFBF" stroke-width="0.75" stroke-linecap="round" stroke-linejoin="round"/>
<path d="M281.051 174.609C281.409 175.355 281.81 176.079 282.252 176.779" stroke="#BFBFBF" stroke-width="0.75" stroke-linecap="round" stroke-linejoin="round"/>
<path d="M306.57 170.551C306.006 171.289 305.284 171.891 304.456 172.312C303.629 172.732 302.717 172.961 301.789 172.982C299.084 172.931 296.617 171.752 294.071 170.812C290.397 169.401 286.606 167.969 282.686 167.795C277.97 167.593 273.616 169.242 269.211 170.378C261.936 172.338 254.309 172.615 246.911 171.188C239.447 169.64 232.336 165.748 227.664 160.244C233.939 157.779 240.357 155.692 246.882 153.995L246.781 154.262L247.012 154.335V154.414C250.024 155.398 253.114 156.124 256.249 156.584H256.336C267.063 158.472 275.214 157.221 279.482 156.179H279.525C282.418 155.68 284.097 155.203 284.097 155.203L283.945 154.754C289.442 155.723 302.555 158.371 305.926 161.083C306.607 161.572 307.21 162.162 307.713 162.834C308.221 163.695 308.451 164.693 308.371 165.691C308.346 167.469 307.71 169.186 306.57 170.551Z" fill="white" stroke="#263238" stroke-linecap="round" stroke-linejoin="round"/>
<path d="M284.06 155.188C284.06 155.188 282.36 155.666 279.489 156.165H279.446C271.8 157.517 263.988 157.653 256.3 156.57H256.213C253.095 156.015 250.016 155.257 246.998 154.298L247.063 154.103L249.537 147.203C250.273 145.122 251.649 143.327 253.468 142.077C255.288 140.827 257.456 140.185 259.663 140.245L271.822 140.519C273.967 140.568 276.045 141.275 277.774 142.544C279.504 143.814 280.802 145.584 281.492 147.615L283.85 154.515L283.923 154.732L284.06 155.188Z" fill="white" stroke="#263238" stroke-linecap="round" stroke-linejoin="round"/>
<path d="M271.446 158.45C272.444 158.45 273.254 157.641 273.254 156.642C273.254 155.643 272.444 154.834 271.446 154.834C270.447 154.834 269.637 155.643 269.637 156.642C269.637 157.641 270.447 158.45 271.446 158.45Z" fill="#263238" stroke="#263238" stroke-linecap="round" stroke-linejoin="round"/>
<path d="M273.254 158.45C274.253 158.45 275.062 157.641 275.062 156.642C275.062 155.643 274.253 154.834 273.254 154.834C272.255 154.834 271.446 155.643 271.446 156.642C271.446 157.641 272.255 158.45 273.254 158.45Z" fill="white" stroke="#263238" stroke-linecap="round" stroke-linejoin="round"/>
<path d="M277.131 156.642C277.132 157.002 277.027 157.354 276.828 157.653C276.629 157.953 276.346 158.187 276.014 158.325C275.682 158.463 275.316 158.5 274.963 158.43C274.61 158.36 274.286 158.187 274.032 157.933C273.777 157.679 273.604 157.354 273.535 157.002C273.465 156.649 273.501 156.283 273.64 155.951C273.778 155.619 274.012 155.336 274.311 155.137C274.611 154.938 274.963 154.832 275.323 154.834C275.802 154.834 276.262 155.024 276.601 155.363C276.941 155.702 277.131 156.162 277.131 156.642Z" fill="#BFBFBF" stroke="#263238" stroke-miterlimit="10"/>
<path d="M241.53 258.224C241.45 264.538 239.591 272.618 230.362 277.247C229.56 277.639 228.725 277.958 227.866 278.202C227.411 278.339 226.933 278.462 226.42 278.578L226.969 278.346L227.295 278.194C224.951 278.918 201.559 279.583 196.663 279.236C179.752 278.028 152.953 272.639 152.953 272.639C152.953 272.639 147.572 273.312 140.809 273.941C133.489 274.621 124.556 275.236 119.109 274.882C118.632 274.845 117.923 274.816 117.019 274.773C112.383 274.585 102.82 274.274 94.9073 273.182C94.958 273.276 95.0158 273.363 95.0665 273.449C96.5131 273.16 91.7392 272.813 87.9346 272.632C86.639 272.573 85.3449 272.778 84.1304 273.233C82.9159 273.688 81.8061 274.384 80.8679 275.279C80.179 275.953 79.385 276.51 78.5171 276.929C73.8373 279.098 72.2894 275.344 69.5481 268.379C68.7814 266.433 68.5788 265.24 67.4432 264.148C67.0824 263.803 66.6846 263.5 66.257 263.243L66.2064 263.207C63.8773 261.761 57.8666 254.6 56.2898 251.2C56.1054 250.817 56.0548 250.383 56.1462 249.967C56.2375 249.552 56.4655 249.179 56.7936 248.908C57.1218 248.638 57.5312 248.485 57.9565 248.474C58.3818 248.463 58.7983 248.596 59.1396 248.85C59.7651 249.365 60.292 249.99 60.6947 250.694C61.0202 251.237 61.9822 251.475 62.6622 251.801C68.1159 254.405 76.0217 261.522 83.7033 261.927L91.7609 262.166L138.523 257.58L144.469 256.994C145.865 256.488 150.472 255.989 156.28 255.547C169.756 254.491 189.668 253.681 190.797 253.587L192.287 253.457C198.124 252.951 204.033 252.567 209.646 252.256C214.102 252.018 218.326 251.83 222.224 251.685C225.957 251.54 229.32 251.439 232.141 251.367L233.479 252.423C236.372 254.701 239.143 256.654 241.53 258.224Z" fill="#BFBFBF" stroke="#263238" stroke-linecap="round" stroke-linejoin="round"/>
<path d="M84.2311 268.567C83.5749 269.048 82.8409 269.412 82.0612 269.645C81.6931 269.762 81.2998 269.773 80.9254 269.679C80.551 269.584 80.2104 269.387 79.9419 269.11" stroke="#263238" stroke-linecap="round" stroke-linejoin="round"/>
<path d="M69.9097 265.384C67.4577 264.929 63.3131 260.69 61.7146 258.781" stroke="#263238" stroke-linecap="round" stroke-linejoin="round"/>
<path d="M62.3367 253.24C61.6738 252.572 61.1242 251.8 60.7092 250.954" stroke="#263238" stroke-linecap="round" stroke-linejoin="round"/>
<path d="M71.2913 269.131C71.1279 271.067 71.5784 273.006 72.5788 274.672" stroke="#263238" stroke-linecap="round" stroke-linejoin="round"/>
<path d="M60.1161 254.694C59.2602 254.36 58.4814 253.854 57.8272 253.209C57.1731 252.563 56.6574 251.791 56.3115 250.94" fill="white"/>
<path d="M60.1161 254.694C59.2602 254.36 58.4814 253.854 57.8272 253.209C57.1731 252.563 56.6574 251.791 56.3115 250.94" stroke="#263238" stroke-linecap="round" stroke-linejoin="round"/>
<path d="M245.088 260.466C246.358 261.221 247.3 262.422 247.731 263.834C248.162 265.247 248.05 266.77 247.417 268.104C247.383 268.18 247.342 268.253 247.294 268.321C244.22 272.806 238.152 278.853 227.866 278.202C226.212 278.094 224.571 277.838 222.962 277.435C216.358 275.815 205.603 266.585 195.751 256.9C194.572 255.743 193.408 254.571 192.258 253.414C181.538 242.564 172.663 232.141 172.663 232.141C172.663 232.141 169.907 242.267 164.967 246.918C163.839 247.974 160.36 251.475 156.251 255.504C152.36 259.309 147.912 263.605 144.382 266.737C143.789 267.417 143.225 268.097 142.711 268.741C141.532 270.223 140.867 272.048 140.816 273.941C140.792 274.424 140.814 274.909 140.881 275.388C140.983 276.259 140.968 277.139 140.838 278.006C140.281 282.086 130.711 279.728 130.711 279.728C122.516 280.292 112.014 281.008 109.981 280.617C109.604 280.541 109.263 280.343 109.011 280.053C108.759 279.763 108.61 279.397 108.587 279.014C108.564 278.63 108.668 278.249 108.883 277.931C109.099 277.613 109.414 277.375 109.779 277.254C110.487 277.071 111.222 277.019 111.949 277.102C112.527 277.146 113.214 276.567 113.815 276.241C114.835 275.704 115.883 275.221 116.954 274.795C122.017 272.733 128.932 270.563 132.491 266.115L135.601 262.093L138.451 257.551L160.656 222.109C160.656 222.109 164.215 215.462 171.506 214.152C175.802 213.429 184.909 218.022 195.411 224.734C195.411 224.734 218.434 240.85 223.331 244.575C226.398 246.911 229.327 249.19 232.011 251.309L233.349 252.365C236.293 254.687 239.063 256.64 241.45 258.209C242.846 259.092 244.047 259.837 245.088 260.466Z" fill="#BFBFBF" stroke="#263238" stroke-linecap="round" stroke-linejoin="round"/>
<path d="M137.749 269.269C137.757 270.006 137.64 270.74 137.402 271.439C137.288 271.771 137.084 272.066 136.814 272.29C136.543 272.515 136.216 272.66 135.868 272.712" stroke="#263238" stroke-linecap="round" stroke-linejoin="round"/>
<path d="M114.104 279.72C113.494 280.156 112.793 280.448 112.053 280.573C111.314 280.698 110.556 280.654 109.836 280.444" fill="white"/>
<path d="M114.104 279.72C113.494 280.156 112.793 280.448 112.053 280.573C111.314 280.698 110.556 280.654 109.836 280.444" stroke="#263238" stroke-linecap="round" stroke-linejoin="round"/>
<path d="M116.657 276.827C115.211 277.24 114.487 277.854 113.041 278.274C112.636 278.382 111.442 278.274 111.081 278.527C110.897 278.631 110.738 278.772 110.613 278.941C110.489 279.111 110.401 279.305 110.357 279.511C110.321 279.719 110.357 279.933 110.459 280.117C110.562 280.302 110.725 280.445 110.921 280.523" stroke="#263238" stroke-linecap="round" stroke-linejoin="round"/>
<path d="M114.56 276.603C113.42 277.336 112.08 277.695 110.726 277.63C110.389 277.599 110.052 277.687 109.773 277.878C109.494 278.07 109.292 278.353 109.2 278.679C109.08 278.948 109.055 279.249 109.128 279.534C109.202 279.82 109.37 280.071 109.605 280.249" stroke="#263238" stroke-linecap="round" stroke-linejoin="round"/>
<path d="M173.553 228.25C173.254 231.279 172.386 234.224 170.992 236.929" stroke="#263238" stroke-linecap="round" stroke-linejoin="round"/>
<path d="M165.032 217.017C161.707 220.011 159.534 224.075 158.891 228.503" stroke="#263238" stroke-linecap="round" stroke-linejoin="round"/>
<path d="M199.078 259.54C198.008 262.94 197.039 266.05 195.968 269.421C194.976 264.056 193.632 258.762 191.947 253.573C193.991 255.929 196.398 257.944 199.078 259.54Z" fill="#263238" stroke="#263238" stroke-linecap="round" stroke-linejoin="round"/>
<path d="M225.523 244.929C225.523 245.016 225.732 243.569 225.523 245.19C225.523 244.032 225.899 242.296 227.345 241.472C233.168 250.441 242.282 256.792 251.215 262.658C250.491 265.384 248.495 267.106 247.692 268.133C247.924 268.82 240.958 280.979 226.796 283.482C217.234 285.167 208.149 285.992 198.912 282.983C194.319 275.706 195.91 266.093 199.339 258.202C202.767 250.311 207.852 243.107 210.167 234.817C212.995 236.423 215.809 238.116 218.637 239.721C221.255 241.219 225.421 241.906 225.523 244.929Z" fill="white" stroke="#263238" stroke-linecap="round" stroke-linejoin="round"/>
<path d="M248.09 266.585C248.177 265.204 246.853 264.054 245.486 263.844C244.097 263.75 242.709 264.029 241.465 264.654C240.224 265.276 238.871 265.642 237.486 265.732C237.683 266.54 238.127 267.266 238.758 267.808C239.389 268.351 240.173 268.682 241.002 268.755C242.714 268.753 244.388 268.25 245.819 267.308C246.455 266.932 247.504 266.144 248.09 266.585Z" fill="white" stroke="#263238" stroke-linecap="round" stroke-linejoin="round"/>
<path d="M243.316 265.869L246.152 265.79L243.316 265.869Z" fill="white"/>
<path d="M243.316 265.869L246.152 265.79" stroke="#263238" stroke-linecap="round" stroke-linejoin="round"/>
<path d="M249.493 267.359C249.495 267.757 249.378 268.147 249.157 268.479C248.937 268.811 248.623 269.07 248.255 269.223C247.888 269.376 247.483 269.416 247.092 269.339C246.701 269.261 246.342 269.07 246.061 268.788C245.779 268.507 245.587 268.148 245.51 267.757C245.433 267.366 245.473 266.961 245.626 266.593C245.779 266.226 246.038 265.912 246.37 265.691C246.702 265.471 247.091 265.354 247.49 265.356C248.021 265.357 248.529 265.569 248.904 265.944C249.28 266.32 249.491 266.828 249.493 267.359Z" fill="white" stroke="#263238" stroke-linecap="round" stroke-linejoin="round"/>
<path d="M248.806 278.165C250.031 277.405 251.036 276.338 251.722 275.069C252.407 273.8 252.748 272.374 252.712 270.932C252.661 269.355 251.989 267.591 250.462 267.106C250.031 266.968 249.569 266.95 249.128 267.055C248.687 267.159 248.283 267.381 247.959 267.698C247.635 268.015 247.403 268.414 247.288 268.852C247.174 269.291 247.181 269.752 247.309 270.187C247.309 270.108 249.493 275.583 248.806 278.165Z" fill="white" stroke="#263238" stroke-linecap="round" stroke-linejoin="round"/>
<path d="M249.095 268.075C249.986 269.278 250.543 270.696 250.708 272.184L249.095 268.075Z" fill="white"/>
<path d="M249.095 268.075C249.986 269.278 250.543 270.696 250.708 272.184" stroke="#263238" stroke-linecap="round" stroke-linejoin="round"/>
<path d="M226.412 247.678C228.598 253.215 232.069 258.154 236.539 262.086" stroke="#263238" stroke-linecap="round" stroke-linejoin="round"/>
<path d="M228.857 264.849C229.19 265.573 229.58 266.296 229.935 267.019L228.857 264.849Z" fill="white"/>
<path d="M228.857 264.849C229.19 265.573 229.58 266.296 229.935 267.019" stroke="#263238" stroke-linecap="round" stroke-linejoin="round"/>
<path d="M225.544 250.26C225.634 254.499 226.446 258.692 227.946 262.658" stroke="#263238" stroke-linecap="round" stroke-linejoin="round"/>
<path d="M250.701 101.142H153.669C148.708 101.142 144.686 105.164 144.686 110.126V123.927C144.686 128.888 148.708 132.91 153.669 132.91H250.701C255.663 132.91 259.685 128.888 259.685 123.927V110.126C259.685 105.164 255.663 101.142 250.701 101.142Z" fill="white" stroke="#263238" stroke-linecap="round" stroke-linejoin="round"/>
<path d="M172.772 112.064V113.135C172.772 114.43 172.121 115.167 170.877 115.167C169.633 115.167 168.989 114.444 168.989 113.135V108.947C168.989 107.652 169.633 106.914 170.877 106.914C172.121 106.914 172.772 107.638 172.772 108.947V109.743H171.571V108.875C171.571 108.303 171.318 108.079 170.913 108.079C170.508 108.079 170.255 108.303 170.255 108.875V113.214C170.255 113.786 170.508 113.996 170.913 113.996C171.318 113.996 171.571 113.786 171.571 113.214V112.057L172.772 112.064Z" fill="#263238"/>
<path d="M174.725 107.008V113.229C174.725 113.808 174.978 114.01 175.376 114.01C175.773 114.01 176.034 113.808 176.034 113.229V107.008H177.235V113.149C177.235 114.437 176.591 115.175 175.347 115.175C174.103 115.175 173.452 114.451 173.452 113.149V107.008H174.725Z" fill="#263238"/>
<path d="M180.779 115.073C180.672 114.755 180.632 114.417 180.663 114.082V112.817C180.663 112.093 180.41 111.789 179.831 111.789H179.397V115.073H178.131V107.008H180.041C181.357 107.008 181.922 107.616 181.922 108.86V109.497C181.967 109.821 181.912 110.153 181.763 110.445C181.615 110.738 181.379 110.977 181.09 111.131C181.719 111.399 181.929 112.006 181.929 112.853V114.082C181.907 114.414 181.954 114.746 182.066 115.059L180.779 115.073ZM179.397 108.158V110.639H179.889C180.359 110.639 180.648 110.43 180.648 109.786V109.019C180.648 108.441 180.453 108.187 180.005 108.187L179.397 108.158Z" fill="#263238"/>
<path d="M185.408 115.073C185.305 114.754 185.265 114.417 185.292 114.082V112.817C185.292 112.093 185.039 111.789 184.468 111.789H184.026V115.073H182.76V107.008H184.67C185.986 107.008 186.551 107.616 186.551 108.86V109.497C186.597 109.821 186.541 110.153 186.393 110.445C186.244 110.738 186.009 110.977 185.719 111.131C186.355 111.399 186.565 112.006 186.565 112.853V114.082C186.54 114.414 186.587 114.747 186.703 115.059L185.408 115.073ZM184.026 108.158V110.639H184.525C184.996 110.639 185.285 110.43 185.285 109.786V109.019C185.285 108.441 185.09 108.187 184.641 108.187L184.026 108.158Z" fill="#263238"/>
<path d="M188.663 110.408H190.399V111.558H188.663V113.923H190.833V115.073H187.375V107.008H190.833V108.158H188.663V110.408Z" fill="#263238"/>
<path d="M192.764 109.229V115.073H191.621V107.008H193.212L194.514 111.833V107.008H195.643V115.073H194.341L192.764 109.229Z" fill="#263238"/>
<path d="M196.185 107.008H200.098V108.158H198.775V115.073H197.509V108.158H196.185V107.008Z" fill="#263238"/>
<path d="M202.442 107.008H203.708V113.923H205.827V115.073H202.471L202.442 107.008Z" fill="#263238"/>
<path d="M206.247 108.947C206.247 108.437 206.449 107.947 206.81 107.586C207.171 107.226 207.66 107.023 208.171 107.023C208.681 107.023 209.17 107.226 209.531 107.586C209.892 107.947 210.095 108.437 210.095 108.947V113.135C210.095 113.645 209.892 114.135 209.531 114.495C209.17 114.856 208.681 115.059 208.171 115.059C207.66 115.059 207.171 114.856 206.81 114.495C206.449 114.135 206.247 113.645 206.247 113.135V108.947ZM207.512 113.222C207.512 113.793 207.766 114.01 208.171 114.01C208.576 114.01 208.829 113.793 208.829 113.222V108.882C208.829 108.31 208.568 108.086 208.171 108.086C207.773 108.086 207.512 108.31 207.512 108.882V113.222Z" fill="#263238"/>
<path d="M214.586 112.064V113.135C214.586 114.43 213.942 115.167 212.698 115.167C211.454 115.167 210.811 114.444 210.811 113.135V108.947C210.811 107.652 211.454 106.914 212.698 106.914C213.942 106.914 214.586 107.638 214.586 108.947V109.743H213.386V108.875C213.386 108.303 213.132 108.079 212.735 108.079C212.337 108.079 212.076 108.303 212.076 108.875V113.214C212.076 113.786 212.329 113.996 212.735 113.996C213.14 113.996 213.386 113.786 213.386 113.214V112.057L214.586 112.064Z" fill="#263238"/>
<path d="M219.461 115.073H218.181L217.964 113.627H216.409L216.192 115.073H215.027L216.315 107.008H218.174L219.461 115.073ZM216.568 112.513H217.79L217.183 108.433L216.568 112.513Z" fill="#263238"/>
<path d="M219.244 107.008H223.186V108.158H221.863V115.073H220.597V108.158H219.273L219.244 107.008Z" fill="#263238"/>
<path d="M223.714 107.008H224.98V115.073H223.714V107.008Z" fill="#263238"/>
<path d="M225.798 108.947C225.798 108.694 225.847 108.444 225.944 108.211C226.041 107.977 226.182 107.765 226.361 107.586C226.54 107.408 226.752 107.266 226.985 107.169C227.219 107.073 227.469 107.023 227.722 107.023C227.974 107.023 228.224 107.073 228.458 107.169C228.691 107.266 228.903 107.408 229.082 107.586C229.261 107.765 229.402 107.977 229.499 108.211C229.596 108.444 229.646 108.694 229.646 108.947V113.135C229.646 113.388 229.596 113.638 229.499 113.871C229.402 114.105 229.261 114.317 229.082 114.495C228.903 114.674 228.691 114.816 228.458 114.912C228.224 115.009 227.974 115.059 227.722 115.059C227.469 115.059 227.219 115.009 226.985 114.912C226.752 114.816 226.54 114.674 226.361 114.495C226.182 114.317 226.041 114.105 225.944 113.871C225.847 113.638 225.798 113.388 225.798 113.135V108.947ZM227.063 113.222C227.063 113.793 227.317 114.01 227.722 114.01C228.127 114.01 228.38 113.793 228.38 113.222V108.882C228.38 108.31 228.127 108.086 227.722 108.086C227.317 108.086 227.063 108.31 227.063 108.882V113.222Z" fill="#263238"/>
<path d="M231.599 109.229V115.073H230.456V107.008H232.047L233.349 111.833V107.008H234.477V115.073H233.175L231.599 109.229Z" fill="#263238"/>
<path d="M171.18 126.473V121.019H170.059V120.404H172.953V121.019H171.831V126.473H171.18Z" fill="#999999"/>
<path d="M174.797 120.404C175.752 120.404 176.15 120.889 176.15 121.793V122.285C176.15 122.95 175.918 123.37 175.426 123.536C175.983 123.695 176.193 124.151 176.193 124.802V125.749C176.173 125.996 176.213 126.244 176.309 126.473H175.629C175.533 126.244 175.493 125.996 175.513 125.749V124.795C175.513 124.115 175.195 123.898 174.631 123.898H174.153V126.487H173.473V120.419L174.797 120.404ZM174.623 123.297C175.166 123.297 175.484 123.124 175.484 122.458V121.88C175.484 121.33 175.282 121.048 174.761 121.048H174.103V123.297H174.623Z" fill="#999999"/>
<path d="M176.815 121.865C176.815 120.939 177.271 120.339 178.204 120.339C179.137 120.339 179.6 120.939 179.6 121.865V125.012C179.628 125.207 179.612 125.407 179.554 125.596C179.495 125.785 179.396 125.959 179.262 126.105C179.129 126.251 178.965 126.365 178.782 126.44C178.599 126.515 178.401 126.548 178.204 126.538C177.271 126.538 176.815 125.93 176.815 125.012V121.865ZM177.48 125.041C177.48 125.597 177.712 125.923 178.204 125.923C178.696 125.923 178.927 125.597 178.927 125.041V121.836C178.927 121.287 178.703 120.954 178.204 120.954C177.705 120.954 177.48 121.287 177.48 121.836V125.041Z" fill="#999999"/>
<path d="M181.567 120.404C182.522 120.404 182.927 120.968 182.927 121.851V122.574C182.927 123.536 182.478 124.021 181.516 124.021H180.916V126.415H180.243V120.346L181.567 120.404ZM181.516 123.471C182.023 123.471 182.24 123.239 182.24 122.661V121.851C182.24 121.294 182.044 121.019 181.516 121.019H180.865V123.485L181.516 123.471Z" fill="#999999"/>
<path d="M184.128 120.404V126.473H183.455V120.404H184.128Z" fill="#999999"/>
<path d="M187.513 121.865V122.415H186.869V121.836C186.869 121.287 186.652 120.954 186.146 120.954C185.639 120.954 185.422 121.287 185.422 121.836V125.041C185.422 125.59 185.647 125.923 186.146 125.923C186.645 125.923 186.869 125.59 186.869 125.041V124.252H187.513V125.012C187.513 125.93 187.079 126.538 186.146 126.538C185.213 126.538 184.779 125.93 184.779 125.012V121.865C184.779 120.947 185.213 120.339 186.146 120.339C187.079 120.339 187.513 120.947 187.513 121.865Z" fill="#999999"/>
<path d="M188.815 125.25L188.583 126.473H187.954L189.118 120.404H190.102L191.259 126.473H190.587L190.348 125.25H188.815ZM188.901 124.672H190.254L189.574 121.164L188.901 124.672Z" fill="#999999"/>
<path d="M191.795 126.473V120.404H192.467V125.858H194.203V126.473H191.795Z" fill="#999999"/>
<path d="M197.422 120.404C198.37 120.404 198.746 120.853 198.746 121.749V122.039C198.746 122.683 198.565 123.08 198.022 123.247C198.616 123.413 198.84 123.876 198.84 124.549V125.062C198.873 125.255 198.861 125.452 198.804 125.639C198.747 125.826 198.647 125.996 198.512 126.137C198.376 126.278 198.21 126.385 198.026 126.45C197.841 126.514 197.645 126.534 197.451 126.509H196.062V120.44L197.422 120.404ZM197.263 122.979C197.798 122.979 198.08 122.805 198.08 122.169V121.815C198.08 121.279 197.892 121.019 197.408 121.019H196.742V122.979H197.263ZM197.458 125.872C197.957 125.872 198.182 125.612 198.182 125.048V124.513C198.182 123.833 197.914 123.608 197.328 123.608H196.742V125.872H197.458Z" fill="#999999"/>
<path d="M201.624 123.095V123.695H200.142V125.865H201.964V126.48H199.469V120.411H201.964V121.026H200.142V123.102L201.624 123.095Z" fill="#999999"/>
<path d="M203.274 125.25L203.042 126.473H202.42L203.577 120.404H204.561L205.726 126.473H205.046L204.814 125.25H203.274ZM203.36 124.672H204.713L204.033 121.164L203.36 124.672Z" fill="#999999"/>
<path d="M208.923 121.865V122.415H208.286V121.836C208.286 121.287 208.069 120.954 207.563 120.954C207.057 120.954 206.84 121.287 206.84 121.836V125.041C206.84 125.59 207.064 125.923 207.563 125.923C208.062 125.923 208.286 125.59 208.286 125.041V124.252H208.923V125.012C208.923 125.93 208.489 126.538 207.556 126.538C206.623 126.538 206.196 125.93 206.196 125.012V121.865C206.196 120.947 206.63 120.339 207.556 120.339C208.481 120.339 208.923 120.947 208.923 121.865Z" fill="#999999"/>
<path d="M210.217 123.739V126.473H209.545V120.404H210.217V123.138H211.715V120.404H212.387V126.473H211.715V123.739H210.217Z" fill="#999999"/>
<path d="M213.378 126.473H213.125V125.655H213.776V126.437L213.444 127.261H213.161L213.378 126.473Z" fill="#999999"/>
<path d="M216.496 120.404V126.473H215.816V120.404H216.496Z" fill="#999999"/>
<path d="M219.816 121.858V122.039H219.179V121.836C219.179 121.294 218.97 120.968 218.456 120.968C217.942 120.968 217.733 121.294 217.733 121.829C217.733 123.196 219.772 123.326 219.772 125.033C219.772 125.952 219.324 126.552 218.398 126.552C217.472 126.552 217.038 125.952 217.038 125.033V124.686H217.668V125.069C217.668 125.612 217.899 125.937 218.391 125.937C218.883 125.937 219.114 125.612 219.114 125.069C219.114 123.71 217.082 123.623 217.082 121.872C217.082 120.939 217.516 120.353 218.427 120.353C219.338 120.353 219.816 120.939 219.816 121.858Z" fill="#999999"/>
<path d="M220.416 126.473V120.404H221.096V125.858H222.832V126.473H220.416Z" fill="#999999"/>
<path d="M224.033 125.25L223.794 126.473H223.186L224.344 120.404H225.327L226.492 126.473H225.812L225.58 125.25H224.033ZM224.119 124.672H225.472L224.749 121.164L224.119 124.672Z" fill="#999999"/>
<path d="M227.606 126.473H226.998V120.404H227.859L229.262 124.795V120.404H229.863V126.473H229.139L227.584 121.561L227.606 126.473Z" fill="#999999"/>
<path d="M231.982 120.404C232.922 120.404 233.356 120.976 233.356 121.909V124.975C233.356 125.901 232.922 126.473 231.982 126.473H230.535V120.404H231.982ZM231.982 125.858C232.474 125.858 232.705 125.554 232.705 124.997V121.88C232.705 121.323 232.474 121.019 231.982 121.019H231.258V125.858H231.982Z" fill="#999999"/>
<path d="M202.558 1C198.167 0.999051 193.819 1.86308 189.762 3.54274C185.705 5.2224 182.018 7.68479 178.913 10.7893C175.808 13.8938 173.345 17.5795 171.664 21.6361C169.984 25.6927 169.119 30.0405 169.119 34.4314C169.119 52.8975 202.558 99.9272 202.558 99.9272C202.558 99.9272 235.996 52.912 235.996 34.4314C235.996 30.0405 235.131 25.6927 233.451 21.6361C231.77 17.5795 229.307 13.8938 226.202 10.7893C223.097 7.68479 219.41 5.2224 215.353 3.54274C211.296 1.86308 206.948 0.999051 202.558 1ZM202.854 50.4961C199.722 50.4961 196.661 49.5674 194.057 47.8273C191.453 46.0872 189.424 43.6139 188.225 40.7203C187.027 37.8268 186.714 34.6428 187.326 31.5713C187.937 28.4997 189.446 25.6785 191.661 23.4645C193.876 21.2505 196.698 19.7431 199.77 19.133C202.841 18.5228 206.025 18.8374 208.918 20.0369C211.811 21.2364 214.284 23.2669 216.023 25.8716C217.761 28.4764 218.689 31.5383 218.687 34.6701C218.685 38.8681 217.016 42.8935 214.047 45.8612C211.078 48.829 207.052 50.4961 202.854 50.4961Z" fill="#92E3A9"/>
<path opacity="0.1" d="M224.387 34.6701C224.387 38.9289 223.124 43.0921 220.758 46.6332C218.392 50.1743 215.029 52.9342 211.095 54.564C207.16 56.1937 202.83 56.6202 198.653 55.7893C194.476 54.9585 190.64 52.9076 187.628 49.8962C184.617 46.8848 182.566 43.048 181.735 38.871C180.904 34.694 181.331 30.3644 182.96 26.4298C184.59 22.4952 187.35 19.1322 190.891 16.7661C194.432 14.4 198.595 13.1371 202.854 13.1371C208.565 13.1371 214.042 15.4058 218.08 19.444C222.119 23.4822 224.387 28.9592 224.387 34.6701Z" fill="black"/>
<path d="M202.558 1C198.167 0.999051 193.819 1.86308 189.762 3.54274C185.705 5.2224 182.018 7.68479 178.913 10.7893C175.808 13.8938 173.345 17.5795 171.664 21.6361C169.984 25.6927 169.119 30.0405 169.119 34.4314C169.119 52.8975 202.558 99.9272 202.558 99.9272C202.558 99.9272 235.996 52.912 235.996 34.4314C235.996 30.0405 235.131 25.6927 233.451 21.6361C231.77 17.5795 229.307 13.8938 226.202 10.7893C223.097 7.68479 219.41 5.2224 215.353 3.54274C211.296 1.86308 206.948 0.999051 202.558 1V1ZM202.854 50.4961C199.722 50.4961 196.661 49.5674 194.057 47.8273C191.453 46.0872 189.424 43.6139 188.225 40.7203C187.027 37.8268 186.714 34.6428 187.326 31.5713C187.937 28.4997 189.446 25.6785 191.661 23.4645C193.876 21.2505 196.698 19.7431 199.77 19.133C202.841 18.5228 206.025 18.8374 208.918 20.0369C211.811 21.2364 214.284 23.2669 216.023 25.8716C217.761 28.4764 218.689 31.5383 218.687 34.6701C218.685 38.8681 217.016 42.8935 214.047 45.8612C211.078 48.829 207.052 50.4961 202.854 50.4961V50.4961Z" stroke="#263238" stroke-linecap="round" stroke-linejoin="round"/>
</svg>
