<svg width="652" height="371" viewBox="0 0 652 371" fill="none" xmlns="http://www.w3.org/2000/svg">
<path d="M484.5 136C543.755 62.294 583.201 41.7851 652 0V370.5H0C51.5109 310.002 70.7965 264.652 167.5 258C303.742 268.578 379.535 271.745 484.5 136Z" fill="#BFBFBF"/>
<path d="M499.345 222.885H297.948V235.735H499.345" stroke="#263238" stroke-linecap="round" stroke-linejoin="round"/>
<path d="M307.385 237V332.979" stroke="#263238" stroke-linecap="round" stroke-linejoin="round"/>
<path d="M493.593 198.136C496.693 194.114 454.995 194.053 446.235 194.449C437.475 194.845 442.503 200.391 442.503 200.391C442.503 200.391 433.476 208.511 439.837 210.042L438.275 217.659" stroke="#263238" stroke-linecap="round" stroke-linejoin="round"/>
<path d="M451.613 199.476C451.613 199.476 488.413 201.137 493.76 203.049C499.108 204.961 493.593 210.461 493.593 210.461C493.593 210.461 498.354 215.862 497.821 217.644" stroke="#263238" stroke-linecap="round" stroke-linejoin="round"/>
<path d="M444.026 210.804C444.026 210.804 480.491 215.74 487.941 211.908" stroke="#263238" stroke-linecap="round" stroke-linejoin="round"/>
<path d="M430.17 198.166C433.271 194.144 391.565 194.083 382.813 194.479C374.061 194.875 379.08 200.421 379.08 200.421C379.08 200.421 370.046 208.541 376.407 210.072L374.883 217.69" stroke="#263238" stroke-linecap="round" stroke-linejoin="round"/>
<path d="M388.191 199.507C388.191 199.507 424.991 201.167 430.33 203.079C435.67 204.991 430.171 210.491 430.171 210.491C430.171 210.491 434.924 215.892 434.398 217.674" stroke="#263238" stroke-linecap="round" stroke-linejoin="round"/>
<path d="M380.604 210.834C380.604 210.834 417.068 215.762 424.51 211.938" stroke="#263238" stroke-linecap="round" stroke-linejoin="round"/>
<path d="M369.033 199.713C372.125 195.691 330.428 195.637 321.668 196.033C312.908 196.429 317.943 201.967 317.943 201.967C317.943 201.967 308.908 210.095 315.269 211.626L313.746 219.244" stroke="#263238" stroke-linecap="round" stroke-linejoin="round"/>
<path d="M327.054 201.061C327.054 201.061 363.846 202.714 369.193 204.626C374.541 206.538 369.033 212.045 369.033 212.045C369.033 212.045 373.787 217.446 373.261 219.221" stroke="#263238" stroke-linecap="round" stroke-linejoin="round"/>
<path d="M319.458 212.388C319.458 212.388 355.931 217.316 363.373 213.492" stroke="#263238" stroke-linecap="round" stroke-linejoin="round"/>
<path d="M503.381 141.63H450.456V158.19H503.381V141.63Z" stroke="#263238" stroke-linecap="round" stroke-linejoin="round"/>
<path d="M474.1 189.878V158.19" stroke="#263238" stroke-linecap="round" stroke-linejoin="round"/>
<path d="M480.026 158.601V190.831" stroke="#263238" stroke-linecap="round" stroke-linejoin="round"/>
<path d="M324.479 257.681V313.524H400.051V255.876H339.988" stroke="#263238" stroke-linecap="round" stroke-linejoin="round"/>
<path d="M487.941 266.517V314.187H411.317V256.874H480.026" stroke="#263238" stroke-linecap="round" stroke-linejoin="round"/>
<path d="M256.265 122.952H213.005V186.611H256.265V122.952Z" stroke="#263238" stroke-linecap="round" stroke-linejoin="round"/>
<path d="M231.051 186.611V338.083" stroke="#263238" stroke-linecap="round" stroke-linejoin="round"/>
<path d="M237.96 192.346V342.128" stroke="#263238" stroke-linecap="round" stroke-linejoin="round"/>
<path d="M197.893 342.128H499.573" stroke="#263238" stroke-linecap="round" stroke-linejoin="round"/>
<path d="M280.617 147.168C272.436 147.731 270.303 157.672 264.887 178.163C259.471 198.654 261.779 194.693 257.361 200.429C254.071 204.71 244.701 237.533 244.701 237.533C244.701 237.533 252.136 237.122 252.699 235.735C258.123 222.306 266.906 210.743 266.357 205.753C265.809 200.764 276.649 180.875 276.649 180.875L280.617 147.168Z" fill="white"/>
<path opacity="0.4" d="M279.711 154.854L276.664 180.875C276.664 180.875 272.208 189.041 269.153 196.216C266.244 188.515 266.358 178.033 267.409 168.679C270.928 155.646 273.427 148.729 279.163 147.35L279.711 154.854Z" fill="#92E3A9"/>
<path d="M280.617 147.168C272.436 147.731 270.303 157.672 264.887 178.163C259.471 198.654 261.779 194.693 257.361 200.429C254.071 204.71 244.701 237.533 244.701 237.533C244.701 237.533 252.136 237.122 252.699 235.735C258.123 222.306 266.906 210.743 266.357 205.753C265.809 200.764 276.649 180.875 276.649 180.875L280.617 147.168Z" stroke="#263238" stroke-linecap="round" stroke-linejoin="round"/>
<path d="M264.888 217.644C264.888 217.644 269.458 256.081 285.996 276.709C302.533 297.337 306.448 322.757 306.448 322.757L316.351 319.9C316.351 319.9 311.72 307.057 310.882 295.791C309.861 282.133 306.806 274.896 300.979 268.46C294.078 260.842 296.409 219.16 296.409 219.16L264.888 217.644Z" fill="white"/>
<path opacity="0.4" d="M311.049 297.947C305.788 297.271 300.73 295.485 296.211 292.706C293.358 287.04 289.935 281.681 285.996 276.709C269.511 256.081 264.888 217.644 264.888 217.644L296.378 219.167C296.378 219.167 294.017 260.873 300.949 268.467C306.806 274.904 309.861 282.141 310.851 295.799C310.905 296.507 310.973 297.223 311.049 297.947Z" fill="#92E3A9"/>
<path d="M264.888 217.644C264.888 217.644 269.458 256.081 285.996 276.709C302.533 297.337 306.448 322.757 306.448 322.757L316.351 319.9C316.351 319.9 311.72 307.057 310.882 295.791C309.861 282.133 306.806 274.896 300.979 268.46C294.078 260.842 296.409 219.16 296.409 219.16L264.888 217.644Z" stroke="#263238" stroke-linecap="round" stroke-linejoin="round"/>
<path d="M280.389 235.773C278.865 236.764 274.843 265.291 277.251 273.327C277.251 273.327 276.641 286.384 274.44 308.246C273.816 314.439 272.878 320.597 271.629 326.695C271.629 326.695 279.642 331.547 280.389 329.376C285.995 313.204 295.334 299.95 292.615 281.455C291.244 272.131 300.232 256.279 300.903 238.98C301.573 221.681 280.389 235.773 280.389 235.773Z" fill="white"/>
<path opacity="0.4" d="M300.903 238.942C300.552 245.185 299.475 251.367 297.696 257.361C294.891 256.106 292.02 255.002 289.096 254.055C285.279 252.801 281.236 252.382 277.243 252.829C278.127 244.191 279.597 236.246 280.389 235.735C280.389 235.773 301.505 221.643 300.903 238.942Z" fill="#92E3A9"/>
<path d="M280.389 235.773C278.865 236.764 274.843 265.291 277.251 273.327C277.251 273.327 276.641 286.384 274.44 308.246C273.816 314.439 272.878 320.597 271.629 326.695C271.629 326.695 279.642 331.547 280.389 329.376C285.995 313.204 295.334 299.95 292.615 281.455C291.244 272.131 300.232 256.279 300.903 238.98C301.573 221.681 280.389 235.773 280.389 235.773Z" stroke="#263238" stroke-linecap="round" stroke-linejoin="round"/>
<path d="M319.497 121.657C316.884 126.936 317.311 139.741 313.852 141.851V140.198C312.268 141.85 310.234 143.002 308.002 143.511C304.323 144.319 293.057 143.961 290.132 137.631C290.254 138.786 290.582 139.911 291.099 140.952C291.099 140.952 287.55 140 286.529 136.557L286.437 138.842C286.437 138.842 284.914 139.124 283.2 133.106C281.486 127.088 286.171 123.279 286.529 120.423C286.887 117.566 291.099 111.716 299.539 110.36C307.979 109.004 319.497 121.657 319.497 121.657Z" fill="#263238"/>
<path d="M359.618 228.034L356 238.881L331.891 241.136L323.177 207.498L322.087 203.293L342.136 199.705L342.243 199.88L359.618 228.034Z" fill="#92E3A9"/>
<path opacity="0.4" d="M342.243 199.88L339.585 203.14L338.983 207.894L323.177 207.498L322.087 203.293L342.136 199.705L342.243 199.88Z" fill="black"/>
<path d="M359.618 228.034L356 238.881L331.891 241.136L323.177 207.498L322.087 203.293L342.136 199.705L342.243 199.88L359.618 228.034Z" stroke="#263238" stroke-linecap="round" stroke-linejoin="round"/>
<path d="M341.298 201.046L339.584 203.148L338.982 207.901L324.448 207.536" stroke="#263238" stroke-linecap="round" stroke-linejoin="round"/>
<path d="M339.988 210.461L354.149 237L353.448 228.765L357.363 228.156" stroke="#263238" stroke-linecap="round" stroke-linejoin="round"/>
<path d="M347.857 218.969L342.639 209.478" stroke="#263238" stroke-linecap="round" stroke-linejoin="round"/>
<path d="M351.841 226.153C350.889 224.423 349.929 222.702 348.977 220.98" stroke="#263238" stroke-linecap="round" stroke-linejoin="round"/>
<path d="M333.91 202.12C333.91 202.12 323.717 190.221 317.707 192.217C311.697 194.213 324.037 204.344 324.037 204.344" stroke="#263238" stroke-linecap="round" stroke-linejoin="round"/>
<path d="M331.349 208.907C331.349 208.907 321.82 191.592 317.166 191.958C312.511 192.324 320.852 208.503 320.852 208.503" stroke="#263238" stroke-linecap="round" stroke-linejoin="round"/>
<path d="M280.618 147.168C280.618 147.168 287.314 150.359 293.53 151.411C299.745 152.462 311.529 150.359 315.186 153.368C318.842 156.377 316.991 168.74 313.243 176.876C309.496 185.011 297.696 194.358 297.696 194.358C297.696 194.358 303.79 211.832 307.393 226.633C310.996 241.433 311.309 247.42 311.309 247.42C311.309 247.42 289.005 256.767 263.09 247.42C263.09 247.42 263.266 217.37 267.912 197.999C269.717 190.465 272.483 188.218 270.022 183.708C265.954 176.175 263.09 167.864 270.929 160.033C275.834 155.12 272.749 151.654 276.505 148.882C277.674 147.913 279.107 147.316 280.618 147.168Z" fill="#92E3A9"/>
<path opacity="0.15" d="M297.696 194.358C297.696 194.358 303.79 211.832 307.393 226.633C310.996 241.433 311.308 247.42 311.308 247.42C305.712 249.487 299.857 250.769 293.91 251.229C294.466 247.573 295.784 238.036 294.946 235.233C293.902 231.79 297.391 218.39 297.277 216.829C297.162 215.267 291.038 219.426 291.038 219.426C291.038 219.426 288.753 218.992 291.914 215.861C295.075 212.731 293.681 193.657 293.681 193.657C291.693 194.11 289.607 193.814 287.823 192.826C284.883 191.166 282.491 184.348 282.491 184.348C282.491 184.348 289.347 187.852 294.565 186.58C299.783 185.308 305.587 173.631 305.587 173.631H307.37C305.907 171.65 306.768 167.217 306.768 167.217L317.029 162.555C316.546 167.499 315.259 172.331 313.22 176.86C309.495 185.011 297.696 194.358 297.696 194.358Z" fill="black"/>
<path d="M280.618 147.168C280.618 147.168 287.314 150.359 293.53 151.411C299.745 152.462 311.529 150.359 315.186 153.368C318.842 156.377 316.991 168.74 313.243 176.876C309.496 185.011 297.696 194.358 297.696 194.358C297.696 194.358 303.79 211.832 307.393 226.633C310.996 241.433 311.309 247.42 311.309 247.42C311.309 247.42 289.005 256.767 263.09 247.42C263.09 247.42 263.266 217.37 267.912 197.999C269.717 190.465 272.483 188.218 270.022 183.708C265.954 176.175 263.09 167.864 270.929 160.033C275.834 155.12 272.749 151.654 276.505 148.882C277.674 147.913 279.107 147.316 280.618 147.168V147.168Z" stroke="#263238" stroke-linecap="round" stroke-linejoin="round"/>
<path d="M312.36 152.317C312.36 152.317 292.356 160.696 284.64 158.944C278.95 157.649 280.618 147.168 280.618 147.168C280.618 147.168 289.881 146.406 292.197 144.585C297.407 140.419 292.197 129.213 292.197 129.213L307.835 132.938C306.818 135.366 305.935 137.848 305.192 140.373C304.741 141.844 304.427 143.353 304.255 144.882C304.157 145.648 304.214 146.425 304.422 147.168C305.314 149.697 312.36 152.317 312.36 152.317Z" fill="white" stroke="#263238" stroke-linecap="round" stroke-linejoin="round"/>
<path d="M315.216 153.368C312.413 153.17 307.119 158.799 306.837 167.232C306.555 175.664 312.413 172.96 312.413 172.96L320.937 194.358C320.937 194.358 327.031 200.139 329.743 199.355C332.454 198.57 319.787 153.703 315.216 153.368Z" fill="white"/>
<path opacity="0.4" d="M312.36 172.96C311.814 173.204 311.225 173.336 310.627 173.349C310.029 173.362 309.435 173.256 308.879 173.036C307.751 170.21 308.742 167.125 309.64 167.704C310.989 168.649 312.36 172.96 312.36 172.96Z" fill="#92E3A9"/>
<path d="M315.216 153.368C312.413 153.17 307.119 158.799 306.837 167.232C306.555 175.664 312.413 172.96 312.413 172.96L320.937 194.358C320.937 194.358 327.031 200.139 329.743 199.355C332.454 198.57 319.787 153.703 315.216 153.368Z" stroke="#263238" stroke-linecap="round" stroke-linejoin="round"/>
<path d="M326.825 203.849C326.825 203.849 320.426 193.459 315.041 192.857C309.655 192.255 313.517 205.212 313.517 205.212" stroke="#263238" stroke-linecap="round" stroke-linejoin="round"/>
<path d="M308.376 204.854L335.189 202.478L354.819 246.392L348.002 253.552L315.59 251.267L306.776 206.286L308.376 204.854Z" fill="#92E3A9"/>
<path opacity="0.2" d="M335.235 202.577L331.594 205.578L330.893 208.488L306.776 206.286L308.376 204.847L335.189 202.478L335.235 202.577Z" fill="black"/>
<path opacity="0.6" d="M354.819 246.393L348.002 253.553L315.59 251.268L306.776 206.287L331.084 208.504L331.594 205.579L335.235 202.577L354.819 246.393Z" fill="white"/>
<path d="M308.376 204.854L335.189 202.478L354.819 246.392L348.002 253.552L315.59 251.267L306.776 206.286L308.376 204.854Z" stroke="#263238" stroke-linecap="round" stroke-linejoin="round"/>
<path d="M307.789 206.583L331.083 208.503L331.593 205.578L333.909 203.849" stroke="#263238" stroke-linecap="round" stroke-linejoin="round"/>
<path d="M332.097 210.803L347.164 250.681L348.169 243.048L352.595 245.28" stroke="#263238" stroke-linecap="round" stroke-linejoin="round"/>
<path d="M345.929 238.188L346.965 240.633" stroke="#263238" stroke-linecap="round" stroke-linejoin="round"/>
<path d="M337.406 218.086L344.924 235.773" stroke="#263238" stroke-linecap="round" stroke-linejoin="round"/>
<path d="M333.208 208.191C334.29 210.76 335.377 213.327 336.469 215.892" stroke="#263238" stroke-linecap="round" stroke-linejoin="round"/>
<path d="M321.401 209.478C321.401 209.478 316.503 194.137 311.232 193.687C305.961 193.238 310.47 208.374 310.47 208.374" stroke="#263238" stroke-linecap="round" stroke-linejoin="round"/>
<path d="M303.256 208.853L308.885 207.901L328.82 212.556L336.857 251.526L325.202 259.563L297.475 251.732L303.256 208.853Z" fill="#263238"/>
<path opacity="0.3" d="M303.257 208.853L321.714 216.745L323.192 214.399L328.821 212.556L308.886 207.901L303.257 208.853Z" fill="black"/>
<path d="M303.256 208.853L308.885 207.901L328.82 212.556L336.857 251.526L325.202 259.563L297.475 251.732L303.256 208.853Z" stroke="#263238" stroke-linecap="round" stroke-linejoin="round"/>
<g opacity="0.5">
<path opacity="0.5" d="M303.759 210.042L321.965 217.644L323.824 214.917L328.417 213.409" stroke="white" stroke-linecap="round" stroke-linejoin="round"/>
<path opacity="0.5" d="M322.285 219.129L324.478 257.681L329.674 249.568L335.95 250.871" stroke="white" stroke-linecap="round" stroke-linejoin="round"/>
<path opacity="0.5" d="M325.804 223.806L328.821 243.49" stroke="white" stroke-linecap="round" stroke-linejoin="round"/>
<path opacity="0.5" d="M324.494 215.869L325.301 220.988" stroke="white" stroke-linecap="round" stroke-linejoin="round"/>
</g>
<path d="M306.448 213.843C306.448 213.843 303.051 195.797 309.83 194.038C316.61 192.278 316.084 217.652 316.084 217.652" stroke="#263238" stroke-linecap="round" stroke-linejoin="round"/>
<path d="M322.292 212.038C322.292 212.038 320.007 193.687 311.971 194.06" stroke="#263238" stroke-linecap="round" stroke-linejoin="round"/>
<path d="M230.754 254.817C230.754 254.817 241.327 242.119 247.574 243.269C253.82 244.419 241.48 255.167 241.48 255.167" stroke="#263238" stroke-linecap="round" stroke-linejoin="round"/>
<path d="M210.758 284.334L215.771 294.61L239.971 293.666L250.75 258.633L244.702 254.863L224.348 253.949L224.272 254.139L210.758 284.334Z" fill="#999999"/>
<path opacity="0.4" d="M224.272 254.139L227.334 257.018L228.561 261.65L249.051 258.412L244.702 254.863L224.348 253.949L224.272 254.139Z" fill="black"/>
<path d="M210.758 284.334L215.771 294.61L239.971 293.666L250.75 258.633L244.702 254.863L224.348 253.949L224.272 254.139L210.758 284.334Z" stroke="#263238" stroke-linecap="round" stroke-linejoin="round"/>
<path d="M225.361 255.167L227.334 257.018L228.553 261.657L247.497 258.656" stroke="#263238" stroke-linecap="round" stroke-linejoin="round"/>
<path d="M227.897 264.331L217.355 292.5L216.966 284.243L213.005 284.159" stroke="#263238" stroke-linecap="round" stroke-linejoin="round"/>
<path d="M221.217 273.792L225.178 263.691" stroke="#263238" stroke-linecap="round" stroke-linejoin="round"/>
<path d="M218.216 281.478C218.978 279.642 219.656 277.814 220.372 275.978" stroke="#263238" stroke-linecap="round" stroke-linejoin="round"/>
<path d="M236.262 261.673C236.262 261.673 243.422 243.254 248.084 243.01C252.746 242.766 246.614 259.898 246.614 259.898" stroke="#263238" stroke-linecap="round" stroke-linejoin="round"/>
<path d="M258.733 257.978L253.02 257.773L233.877 265.017L231.051 304.711L243.666 311.14L270.113 299.722L258.733 257.978Z" fill="#263238"/>
<path opacity="0.3" d="M258.733 257.978L241.479 268.239L239.704 266.106L233.877 265.017L253.02 257.773L258.733 257.978Z" fill="black"/>
<path d="M258.733 257.978L253.02 257.773L233.877 265.017L231.051 304.711L243.666 311.14L270.113 299.722L258.733 257.978Z" stroke="#263238" stroke-linecap="round" stroke-linejoin="round"/>
<g opacity="0.5">
<path opacity="0.5" d="M258.39 259.227L241.342 269.161L239.141 266.7L234.388 265.817" stroke="white" stroke-linecap="round" stroke-linejoin="round"/>
<path opacity="0.5" d="M241.22 270.676L244.138 309.183L237.914 301.824L231.866 303.949" stroke="white" stroke-linecap="round" stroke-linejoin="round"/>
<path opacity="0.5" d="M238.349 275.773L237.96 295.684" stroke="white" stroke-linecap="round" stroke-linejoin="round"/>
<path opacity="0.5" d="M238.6 267.736L238.479 272.916" stroke="white" stroke-linecap="round" stroke-linejoin="round"/>
</g>
<path d="M256.219 263.348C256.219 263.348 257.209 245.013 250.262 244.183C243.315 243.353 247.169 268.384 247.169 268.384" stroke="#263238" stroke-linecap="round" stroke-linejoin="round"/>
<path d="M240.284 263.645C240.284 263.645 240.109 245.158 248.138 244.465" stroke="#263238" stroke-linecap="round" stroke-linejoin="round"/>
<path d="M323.359 192.925C315.741 190.884 306.776 197.656 294.138 196.947C292.211 196.841 287.008 195.942 286.452 196.148C285.896 196.353 282.72 200.718 283.284 202.371C283.733 203.704 289.873 206.766 291.099 206.378L292.325 205.989C293.363 206.116 294.415 205.958 295.37 205.535C296.325 205.111 297.147 204.436 297.749 203.582C297.749 203.582 321.652 206.378 329.689 199.355" fill="white"/>
<path d="M323.359 192.925C315.741 190.884 306.776 197.656 294.138 196.947C292.211 196.841 287.008 195.942 286.452 196.148C285.896 196.353 282.72 200.718 283.284 202.371C283.733 203.704 289.873 206.766 291.099 206.378L292.325 205.989C293.363 206.116 294.415 205.958 295.37 205.535C296.325 205.111 297.147 204.436 297.749 203.582C297.749 203.582 321.652 206.378 329.689 199.355" stroke="#263238" stroke-linecap="round" stroke-linejoin="round"/>
<path d="M292.364 205.989C292.364 205.989 293.4 203.704 292.722 203.704" stroke="#263238" stroke-linecap="round" stroke-linejoin="round"/>
<path d="M293.682 202.874C292.995 203.645 292.06 204.152 291.039 204.306" stroke="#263238" stroke-linecap="round" stroke-linejoin="round"/>
<path d="M288.502 205.753C288.136 205.601 289.157 201.944 289.759 201.297" stroke="#263238" stroke-linecap="round" stroke-linejoin="round"/>
<path d="M286.407 204.763C285.996 204.001 287.649 200.39 287.649 200.39" stroke="#263238" stroke-linecap="round" stroke-linejoin="round"/>
<path d="M284.625 203.689C284.115 202.508 285.996 199.476 285.996 199.476" stroke="#263238" stroke-linecap="round" stroke-linejoin="round"/>
<path d="M309.831 194.06C316.61 192.316 316.084 217.674 316.084 217.674" stroke="#263238" stroke-linecap="round" stroke-linejoin="round"/>
<path d="M322.292 212.038C322.292 212.038 320.007 193.687 311.971 194.06" stroke="#263238" stroke-linecap="round" stroke-linejoin="round"/>
<path d="M326.825 203.849C326.825 203.849 320.427 193.459 315.041 192.857" stroke="#263238" stroke-linecap="round" stroke-linejoin="round"/>
<path d="M321.401 209.478C321.401 209.478 316.503 194.137 311.232 193.687" stroke="#263238" stroke-linecap="round" stroke-linejoin="round"/>
<path d="M333.909 202.12C333.909 202.12 323.717 190.221 317.707 192.217" stroke="#263238" stroke-linecap="round" stroke-linejoin="round"/>
<path d="M331.35 208.907C331.35 208.907 321.82 191.592 317.166 191.958" stroke="#263238" stroke-linecap="round" stroke-linejoin="round"/>
<path d="M280.397 149.841C280.397 149.841 284.785 152.37 285.843 153.368C286.143 153.638 286.36 153.988 286.468 154.376C286.576 154.765 286.571 155.176 286.453 155.562" stroke="#263238" stroke-linecap="round" stroke-linejoin="round"/>
<path d="M288.105 155.562C288.55 155.083 289.089 154.7 289.687 154.438C290.286 154.176 290.933 154.04 291.587 154.039C293.826 154.039 302.35 154.633 306.448 154.564" stroke="#263238" stroke-linecap="round" stroke-linejoin="round"/>
<path d="M274.539 323.374C273.713 324.78 272.737 326.092 271.629 327.289L272.391 322.818C271.917 322.758 271.435 322.812 270.985 322.973C270.535 323.135 270.13 323.4 269.801 323.747C269.801 323.747 270.266 327 269.039 328.195C264.964 332.202 255.214 337.877 253.69 338.174C246.515 339.614 246.515 340.269 246.515 340.269C246.515 340.269 249.729 346.249 260.104 347.163C260.104 347.163 266.609 344.337 270.197 344.337C273.785 344.337 272.833 351.269 272.833 351.269H277.129C277.129 351.269 280.938 346.249 281.433 341.221C281.928 336.194 280.9 332.903 283.253 326.634C283.253 326.634 280.473 324.783 278.081 323.435C275.689 322.086 274.539 323.374 274.539 323.374Z" fill="#263238"/>
<path d="M306.457 317.493C306.784 319.969 306.457 320.54 306.457 320.54L304.552 314.499C304.552 314.499 302.549 316.282 303.151 318.194C303.151 318.194 305.2 321.149 304.948 322.84C304.118 328.5 299.776 338.913 298.748 340.071C293.895 345.548 294.291 346.066 294.291 346.066C294.291 346.066 300.462 348.892 309.283 343.354C309.283 343.354 312.764 337.169 315.62 334.975C318.477 332.781 321.905 338.913 321.905 338.913L325.34 336.316C325.34 336.316 325.34 330.001 322.704 325.705C320.069 321.408 317.616 318.354 315.704 311.932H313.845C313.845 311.932 315.163 314.042 311.187 316.152C309.725 316.935 308.112 317.393 306.457 317.493Z" fill="#263238"/>
<path d="M245.311 235.263C243.025 240.428 240.557 244.731 241.159 247.321C241.761 249.911 245.844 251.328 248.137 250.681C250.43 250.033 254.345 249.431 253.896 247.093C253.649 245.767 253.297 244.463 252.844 243.193C253.279 240.721 253.23 238.188 252.7 235.735" fill="white"/>
<path d="M245.311 235.263C243.025 240.428 240.557 244.731 241.159 247.321C241.761 249.911 245.844 251.328 248.137 250.681C250.43 250.033 254.345 249.431 253.896 247.093C253.649 245.767 253.297 244.463 252.844 243.193C253.279 240.721 253.23 238.188 252.7 235.735" stroke="#263238" stroke-linecap="round" stroke-linejoin="round"/>
<path d="M249.706 243.193C249.706 243.193 251.991 242.53 252.837 243.193" stroke="#263238" stroke-linecap="round" stroke-linejoin="round"/>
<path d="M244.557 245.623C244.557 245.623 241.998 249.226 241.769 251.976" stroke="#263238" stroke-linecap="round" stroke-linejoin="round"/>
<path d="M239.506 247.2C239.506 247.2 242.5 244.038 244.701 244.191" stroke="#263238" stroke-linecap="round" stroke-linejoin="round"/>
<path d="M240.284 252.676C240.284 252.676 242.866 247.04 244.58 245.15" stroke="#263238" stroke-linecap="round" stroke-linejoin="round"/>
<path d="M244.702 240.633C244.702 240.633 244.389 245.074 244.702 246.202C245.014 247.329 249.828 249.66 249.828 249.66C249.828 249.66 250.133 247.946 247.193 245.15C247.193 245.15 250.24 243.84 250.582 241.136" fill="white"/>
<path d="M244.702 240.633C244.702 240.633 244.389 245.074 244.702 246.202C245.014 247.329 249.828 249.66 249.828 249.66C249.828 249.66 250.133 247.946 247.193 245.15C247.193 245.15 250.24 243.84 250.582 241.136" stroke="#263238" stroke-linecap="round" stroke-linejoin="round"/>
<path d="M246.103 251.541C246.103 251.541 245.989 249.256 246.103 247.55V251.541Z" fill="white"/>
<path d="M246.103 251.541C246.103 251.541 245.989 249.256 246.103 247.55" stroke="#263238" stroke-linecap="round" stroke-linejoin="round"/>
<path d="M248.77 244.153C248.77 244.153 250.582 244.153 250.582 247.542" stroke="#263238" stroke-linecap="round" stroke-linejoin="round"/>
<path d="M250.75 242.972C251.317 243.206 251.79 243.624 252.09 244.16C252.309 245.148 252.411 246.158 252.395 247.169" stroke="#263238" stroke-linecap="round" stroke-linejoin="round"/>
<path d="M305.191 140.365C304.74 141.836 304.427 143.346 304.255 144.875C303.054 144.419 301.968 143.705 301.073 142.784C300.178 141.862 299.496 140.756 299.075 139.543L305.191 140.365Z" fill="#263238"/>
<path d="M294.138 135.46C287.389 126.319 292.98 109.484 300.164 107.222C313.555 103.002 317.531 112.486 317.745 117.589C317.92 121.908 314.827 127.088 315.018 129.693C315.497 136.206 308.642 142.696 304.886 142.643C302.533 142.643 300.255 141.34 297.863 139.268" fill="white"/>
<path d="M294.138 135.46C287.389 126.319 292.98 109.484 300.164 107.222C313.555 103.002 317.531 112.486 317.745 117.589C317.92 121.908 314.827 127.088 315.018 129.693C315.497 136.206 308.642 142.696 304.886 142.643C302.533 142.643 300.255 141.34 297.863 139.268" stroke="#263238" stroke-linecap="round" stroke-linejoin="round"/>
<path d="M298.328 121.703C298.862 120.837 299.627 120.139 300.537 119.687C301.447 119.234 302.466 119.046 303.477 119.143" stroke="#263238" stroke-linecap="round" stroke-linejoin="round"/>
<path d="M311.917 120.423C311.917 120.423 314.964 120.088 315.795 122.906" stroke="#263238" stroke-linecap="round" stroke-linejoin="round"/>
<path d="M303.47 124.559C303.364 125.382 302.914 126.006 302.457 125.945C302 125.885 301.695 125.184 301.825 124.346C301.954 123.508 302.389 122.899 302.838 122.959C303.287 123.02 303.577 123.698 303.47 124.559Z" fill="#263238"/>
<path d="M313.037 125.527C312.938 126.349 312.481 126.974 312.024 126.913C311.567 126.852 311.262 126.151 311.392 125.313C311.521 124.475 311.955 123.866 312.405 123.927C312.854 123.988 313.144 124.696 313.037 125.527Z" fill="#263238"/>
<path d="M308.002 127.431C308.272 128.219 308.758 128.916 309.404 129.442C310.311 129.99 308.002 131.948 308.002 131.948" stroke="#263238" stroke-linecap="round" stroke-linejoin="round"/>
<path d="M308.81 134.462C308.81 134.462 304.887 134.759 302.274 133.106" stroke="#263238" stroke-linecap="round" stroke-linejoin="round"/>
<path d="M302.647 133.327C302.647 133.327 303.683 136.168 305.839 136.518C307.994 136.869 308.2 134.485 308.2 134.485" stroke="#263238" stroke-linecap="round" stroke-linejoin="round"/>
<path d="M292.668 122.906C293.257 123.108 293.794 123.438 294.239 123.873C294.685 124.307 295.028 124.836 295.243 125.42C295.243 125.42 304.856 118.892 305.427 111.556C305.427 111.556 316.854 116.622 316.587 126.09C316.587 126.09 321.256 125.519 320.853 118.084C320.449 110.65 309.808 99.5054 300.286 105.531C300.286 105.531 294.017 102.918 289.065 111.861C284.114 120.804 286.78 131.544 292.767 133.106C292.745 133.106 290.703 127.431 292.668 122.906Z" fill="#263238"/>
<path d="M294.139 124.437C294.139 124.437 291.526 121.101 290.223 122.205C288.921 123.31 288.41 128.078 290.223 129.693C292.036 131.308 293.331 132.74 293.636 131.217" fill="white"/>
<path d="M294.139 124.437C294.139 124.437 291.526 121.101 290.223 122.205C288.921 123.31 288.41 128.078 290.223 129.693C292.036 131.308 293.331 132.74 293.636 131.217" stroke="#263238" stroke-linecap="round" stroke-linejoin="round"/>
<path d="M303.79 171.025C304.425 172.078 305.318 172.952 306.384 173.565C307.45 174.178 308.654 174.51 309.884 174.529" stroke="#263238" stroke-linecap="round" stroke-linejoin="round"/>
<path d="M277.708 162.57C277.708 162.57 291.061 163.218 297.947 159.188" stroke="#263238" stroke-linecap="round" stroke-linejoin="round"/>
<path d="M276.649 180.875C276.649 180.875 282.926 183.868 286.552 187.883" stroke="#263238" stroke-linecap="round" stroke-linejoin="round"/>
<path d="M267.462 215.892C269.069 224.043 278.126 237.396 277.707 245.074" stroke="#263238" stroke-linecap="round" stroke-linejoin="round"/>
<path d="M297.277 210.834C297.277 210.834 291.564 220.927 286.544 222.885" stroke="#263238" stroke-linecap="round" stroke-linejoin="round"/>
<path d="M391.444 308.725C391.444 308.725 399.937 319.953 401.537 323.198C401.537 323.198 397.264 330.344 395.809 331.418C394.354 332.492 389.631 344.954 382.158 346.34C374.686 347.727 371.448 344.954 371.448 344.954C371.722 343.474 371.428 341.946 370.626 340.673C369.262 338.311 378.106 330.504 378.799 328.873C379.492 327.243 382.075 315.665 379.507 313.288C376.94 310.912 391.444 308.725 391.444 308.725Z" fill="#263238"/>
<path d="M414.859 324.44C414.859 324.44 414.715 336.026 411.424 338.761C408.133 341.496 399.16 341.198 398.969 343.758C398.779 346.317 398.969 351.238 398.969 351.238C398.969 351.238 409.74 354.757 420.687 352.647C420.687 352.647 424.099 349.334 426.514 349.334H428.921L432.989 346.79C432.989 346.79 431.938 331.25 430.125 327.937C428.312 324.623 414.859 324.44 414.859 324.44Z" fill="#263238"/>
<path d="M360.083 151.342C360.083 151.342 359.085 173.128 364.31 177.508C369.536 181.888 381.609 164.429 381.609 164.429L360.083 151.342Z" fill="white" stroke="#263238" stroke-linecap="round" stroke-linejoin="round"/>
<path d="M355.939 138.659C355.939 138.659 353.966 141.112 353.76 142.11C353.554 143.108 355.939 144.204 355.939 144.204C355.939 144.204 354.118 147.328 354.849 148.531C355.581 149.735 357.477 149.917 357.477 149.917C357.477 149.917 357.584 152.652 358.079 152.964C358.972 153.217 359.894 153.358 360.821 153.383C360.821 153.383 360.593 155.562 363.404 155.623C366.215 155.684 366.451 135.391 366.451 135.391L355.939 138.659Z" fill="white" stroke="#263238" stroke-linecap="round" stroke-linejoin="round"/>
<path d="M385.106 204.42C385.106 204.42 358.255 254.992 357.363 265.961C356.472 276.93 376.064 317.325 376.064 317.325L374.861 322.498C374.861 322.498 383.293 326.535 390.53 321.622C397.766 316.708 396.555 315.139 396.555 315.139C396.555 315.139 380.559 278.431 384.801 269.092C389.044 259.753 401.377 239.582 401.377 239.582C401.377 239.582 405.597 272.07 407.707 275.567C409.817 279.063 413.428 326.984 413.428 328.036C413.428 329.087 410.114 330.557 413.428 332.835C416.741 335.112 430.91 335.379 432.715 332.835C434.52 330.29 431.816 332.294 432.715 321.652C433.614 311.011 434.894 275.658 433.355 270.615C431.816 265.573 433.02 228.857 432.418 218.596C431.816 208.335 429.706 202.485 429.706 202.485L385.106 204.42Z" fill="#92E3A9"/>
<path opacity="0.15" d="M432.524 222.313C412.795 222.313 392.914 213.622 382.95 208.488C384.283 205.928 385.083 204.42 385.083 204.42L429.683 202.424C429.683 202.424 431.793 208.275 432.395 218.535C432.479 219.556 432.524 220.836 432.524 222.313Z" fill="black"/>
<path opacity="0.15" d="M424.557 330.61C424.557 330.61 416.939 334.008 412.011 330.389C412.27 329.391 413.428 328.63 413.428 328.005C413.428 326.954 409.817 279.033 407.707 275.536C405.597 272.04 401.377 239.582 401.377 239.582C401.377 239.582 389.021 259.776 384.801 269.122C380.581 278.469 396.555 315.17 396.555 315.17C396.555 315.17 397.759 316.731 390.53 321.652C383.301 326.573 374.861 322.528 374.861 322.528L376.064 317.356C376.064 317.356 357.851 279.802 357.348 267.287C361.492 267.751 367.7 268.048 373.299 266.525C382.775 264.034 391.581 243.497 391.581 243.497C391.581 243.497 384.017 239.856 384.299 238.531C384.58 237.205 395.725 237.007 395.725 237.007C395.725 237.007 390.766 229.58 392.205 226.922C392.205 226.922 403.114 233.328 411.34 240.542C419.567 247.756 418.729 251.549 418.729 251.549C418.729 251.549 411.599 250.201 407.745 246.423C403.891 242.644 409.558 271.636 414.41 275.521C419.141 279.33 423.643 277.684 423.871 277.601C423.742 278.004 418.965 291.822 414.41 289.575C409.855 287.328 418.051 314.995 419.575 319.207C421.098 323.419 417.869 324.189 417.869 324.189L424.557 330.61Z" fill="black"/>
<path d="M385.106 204.42C385.106 204.42 358.255 254.992 357.363 265.961C356.472 276.93 376.064 317.325 376.064 317.325L374.861 322.498C374.861 322.498 383.293 326.535 390.53 321.622C397.766 316.708 396.555 315.139 396.555 315.139C396.555 315.139 380.559 278.431 384.801 269.092C389.044 259.753 401.377 239.582 401.377 239.582C401.377 239.582 405.597 272.07 407.707 275.567C409.817 279.063 413.428 326.984 413.428 328.036C413.428 329.087 410.114 330.557 413.428 332.835C416.741 335.112 430.91 335.379 432.715 332.835C434.52 330.29 431.816 332.294 432.715 321.652C433.614 311.011 434.894 275.658 433.355 270.615C431.816 265.573 433.02 228.857 432.418 218.596C431.816 208.335 429.706 202.485 429.706 202.485L385.106 204.42Z" stroke="#263238" stroke-linecap="round" stroke-linejoin="round"/>
<path d="M406.099 136.275C406.099 136.275 438.443 129.198 453.579 137.288C457.342 139.299 459.909 145.446 459.604 153.284C459.299 161.123 434.398 197.542 434.703 202.432C435.007 207.322 435.906 207.429 434.101 208.282C432.295 209.135 394.49 208.77 384.679 206.233C380.741 205.22 385.007 200.49 385.007 200.49C385.007 200.49 392.548 160.072 406.099 136.275Z" fill="#263238"/>
<path d="M443.562 134.888C443.562 134.888 426.933 141.554 421.472 134.591C422.398 134.644 423.323 134.462 424.16 134.062C424.997 133.663 425.721 133.059 426.263 132.306C427.12 130.985 427.585 129.448 427.604 127.873C427.678 126.397 427.583 124.917 427.322 123.462C426.682 119.562 443.082 122.084 443.082 122.084C443.082 122.084 439.555 132.938 443.562 134.888Z" fill="white" stroke="#263238" stroke-linecap="round" stroke-linejoin="round"/>
<path d="M412.125 169.624V173.242L410.32 175.055V190.831L393.241 199.476L357.333 191.958L358.247 173.844L358.285 173.044L356.701 172.336L356.472 172.237V168.017L357.782 167.796L362.574 167.003L374.556 165.008L403.312 168.542L412.125 169.624Z" fill="#999999"/>
<path opacity="0.4" d="M412.125 169.624V169.639L395.702 174.552L357.782 167.796L362.574 167.003L393.767 170.027L403.312 168.542L412.125 169.624Z" fill="white"/>
<path opacity="0.4" d="M412.125 173.113V173.242L410.32 175.055V180.639L394.262 181.187L358.247 173.844L358.285 173.044L356.701 172.336L394.894 178.917L412.125 173.113Z" fill="black"/>
<path d="M412.125 169.624V173.242L410.32 175.055V190.831L393.241 199.476L357.333 191.958L358.247 173.844L358.285 173.044L356.701 172.336L356.472 172.237V168.017L357.782 167.796L362.574 167.003L374.556 165.008L403.312 168.542L412.125 169.624Z" stroke="#263238" stroke-linecap="round" stroke-linejoin="round"/>
<path d="M360.821 168.976L395.709 174.552L409.664 171.048" stroke="#263238" stroke-linecap="round" stroke-linejoin="round"/>
<path d="M356.48 172.237L394.895 178.917L412.125 173.242" stroke="#263238" stroke-linecap="round" stroke-linejoin="round"/>
<path d="M393.241 198.136L394.292 180.578" stroke="#263238" stroke-linecap="round" stroke-linejoin="round"/>
<path d="M410.319 120.293V125.747L407.905 127.431L408.126 131.224L408.705 141.295L408.712 141.439L368.53 147.168H357.363L357.333 146.992L354.819 131.948L352.899 131.064L353.113 124.574L391.032 114.969L410.319 120.293Z" fill="#92E3A9"/>
<path opacity="0.4" d="M410.319 125.747L407.905 127.431L408.126 131.224L392.182 123.721L354.819 131.948L352.899 131.064L392.182 121.573L410.319 125.61V125.747Z" fill="black"/>
<path opacity="0.4" d="M408.712 141.439L368.538 147.168H357.363V146.992C365.201 145.004 395.092 137.92 395.092 137.92L408.704 141.317L408.712 141.439Z" fill="black"/>
<path d="M410.319 120.293V125.747L407.905 127.431L408.126 131.224L408.705 141.295L408.712 141.439L368.53 147.168H357.363L357.333 146.992L354.819 131.948L352.899 131.064L353.113 124.574L391.032 114.969L410.319 120.293Z" stroke="#263238" stroke-linecap="round" stroke-linejoin="round"/>
<path d="M356.48 131.064L392.183 121.573L410.32 125.747" stroke="#263238" stroke-linecap="round" stroke-linejoin="round"/>
<path d="M359.496 146.452L394.292 137.768L406.13 140.655" stroke="#263238" stroke-linecap="round" stroke-linejoin="round"/>
<path d="M394.293 137.768L392.183 124.414" stroke="#263238" stroke-linecap="round" stroke-linejoin="round"/>
<path d="M414.387 145.294V149.339H412.376L412.429 154.815L412.544 166.257L399.693 167.719L362.124 166.089L362.939 150.969L360.821 150.314L360.829 150.199L361.012 146.292L399.853 140.396L414.387 145.294Z" fill="#92E3A9"/>
<path opacity="0.5" d="M414.388 145.294V149.339H412.377L412.43 154.815L412.545 166.257L399.694 167.719L362.125 166.089L362.94 150.969L360.822 150.314L360.83 150.199L361.013 146.292L399.854 140.396L414.388 145.294Z" fill="white"/>
<path opacity="0.2" d="M414.387 149.339H412.376L412.43 154.816L399.267 148.181L362.939 150.969L360.822 150.314L360.829 150.199L400.021 145.918L414.387 149.026V149.339Z" fill="black"/>
<path d="M414.387 145.294V149.339H412.376L412.429 154.815L412.544 166.257L399.693 167.719L362.124 166.089L362.939 150.969L360.821 150.314L360.829 150.199L361.012 146.292L399.853 140.396L414.387 145.294Z" stroke="#263238" stroke-linecap="round" stroke-linejoin="round"/>
<path d="M363.404 149.918L400.021 145.918L412.125 148.333" stroke="#263238" stroke-linecap="round" stroke-linejoin="round"/>
<path d="M399.267 149.087V166.264" stroke="#263238" stroke-linecap="round" stroke-linejoin="round"/>
<g opacity="0.5">
<path opacity="0.5" d="M436.181 155.608C436.181 155.608 435.732 154.084 436.181 153.452C436.631 152.82 444.172 153.833 446.579 155.608" stroke="white" stroke-linecap="round" stroke-linejoin="round"/>
<path opacity="0.5" d="M437.567 151.494C440.538 148.428 444.575 146.622 448.841 146.452" stroke="white" stroke-linecap="round" stroke-linejoin="round"/>
<path opacity="0.5" d="M418.707 137.768C418.707 137.768 427.802 141.508 437.567 137.768" stroke="white" stroke-linecap="round" stroke-linejoin="round"/>
<path opacity="0.5" d="M391.581 203.019C391.581 203.019 418.402 202.508 429.554 189.361" stroke="white" stroke-linecap="round" stroke-linejoin="round"/>
<path opacity="0.5" d="M431.763 153.277C431.763 153.277 433.621 160.841 440.553 163.096" stroke="white" stroke-linecap="round" stroke-linejoin="round"/>
<path opacity="0.5" d="M414.388 151.494C414.388 151.494 415.043 167.316 421.32 173.646" stroke="white" stroke-linecap="round" stroke-linejoin="round"/>
</g>
<path d="M437.567 155.608C440.236 156.461 442.703 157.845 444.822 159.678C446.94 161.511 448.665 163.754 449.892 166.272C449.892 166.272 434.421 193.261 431.763 194.457C430.925 194.837 427.261 196.544 426.362 196.673C418.036 197.862 412.072 197.74 403.685 198.357C399 198.707 394.407 198.037 389.707 198.265C387.864 198.349 387.117 199.111 385.266 199.156C384.542 199.156 383.567 198.882 382.844 198.89C381.48 198.89 379.363 199.69 378.045 199.316C377.641 199.202 377.009 198.905 376.613 198.768C375.592 198.41 373.253 199.484 371.997 198.913C371.722 198.783 370.618 197.763 370.336 197.686C368.992 197.235 367.712 196.613 366.527 195.835C366.016 195.231 365.679 194.499 365.552 193.718C367.495 193.223 369.727 193.245 371.738 193.04C371.738 193.04 366.405 191.516 366.405 189.361C366.405 187.205 367.609 186.915 367.609 186.915C370.684 188.783 374.267 189.638 377.854 189.361C384.184 189.025 385.251 190.838 387.757 190.838C399.259 190.838 411.021 184.744 415.462 183.868C419.903 182.992 422.736 182.512 422.736 182.512C422.736 182.512 427.787 170.942 431.755 166.272C434.315 163.093 436.283 159.481 437.567 155.608Z" fill="white" stroke="#263238" stroke-linecap="round" stroke-linejoin="round"/>
<path d="M422.744 182.505C423.94 182.286 425.166 182.286 426.362 182.505" stroke="#263238" stroke-linecap="round" stroke-linejoin="round"/>
<path d="M371.745 193.032C373.314 193.207 374.861 193.544 376.361 194.038" stroke="#263238" stroke-linecap="round" stroke-linejoin="round"/>
<path d="M401.879 210.042C401.879 210.803 398.467 228.11 400.874 235.735" stroke="#263238" stroke-linecap="round" stroke-linejoin="round"/>
<path d="M405.498 210.042C405.498 210.042 404.287 219.899 404.69 222.885C405.094 225.871 400.051 226.153 400.051 226.153" stroke="#263238" stroke-linecap="round" stroke-linejoin="round"/>
<path d="M419.575 206.416C419.575 206.416 423.49 216.204 429.569 219.129" stroke="#263238" stroke-linecap="round" stroke-linejoin="round"/>
<path d="M391.58 205.753C391.58 205.753 387.642 209.79 383.011 210.804" stroke="#263238" stroke-linecap="round" stroke-linejoin="round"/>
<path d="M398.665 233.732C398.665 233.732 388.412 255.007 384.298 262.244C380.185 269.48 379.377 270.882 380.581 272.284C381.785 273.685 381.617 283.938 383.011 286.551C384.405 289.164 389.928 313.067 391.581 314.073C393.234 315.078 393.241 317.882 393.241 317.882" stroke="#263238" stroke-linecap="round" stroke-linejoin="round"/>
<path d="M381.609 239.415C381.609 239.415 394.132 240.847 400.013 238.188" stroke="#263238" stroke-linecap="round" stroke-linejoin="round"/>
<path d="M403.685 235.773C403.685 235.773 417.457 252.334 421.319 253.591" stroke="#263238" stroke-linecap="round" stroke-linejoin="round"/>
<path d="M429.553 271.08C429.553 271.08 422.37 289.362 418.127 289.568" stroke="#263238" stroke-linecap="round" stroke-linejoin="round"/>
<path d="M382.394 268.528C382.394 268.528 376.94 277.791 367.723 275.818" stroke="#263238" stroke-linecap="round" stroke-linejoin="round"/>
<path d="M393.242 311.948C393.242 311.948 386.813 322.901 378.769 317.874" stroke="#263238" stroke-linecap="round" stroke-linejoin="round"/>
<path d="M415.941 327.944C415.941 327.944 422.599 332.301 427.596 329.902" stroke="#263238" stroke-linecap="round" stroke-linejoin="round"/>
<path d="M433.705 126.319C433.705 126.319 430.841 131.255 426.263 132.298C427.12 130.977 427.585 129.44 427.604 127.865C430.704 126.966 433.705 126.319 433.705 126.319Z" fill="#263238"/>
<path d="M443.082 121.177C447.721 114.321 454.782 87.1957 431.975 92.4898C420.633 95.1254 422.073 110.01 422.073 110.01L417.822 117.026L421.395 117.589L421.258 120.819L422.362 121.207C422.362 121.207 421.395 129.038 422.362 129.533C424.129 130.432 435.731 129.023 435.731 126.205" fill="white"/>
<path d="M443.082 121.177C447.721 114.321 454.782 87.1957 431.975 92.4898C420.633 95.1254 422.073 110.01 422.073 110.01L417.822 117.026L421.395 117.589L421.258 120.819L422.362 121.207C422.362 121.207 421.395 129.038 422.362 129.533C424.129 130.432 435.731 129.023 435.731 126.205" stroke="#263238" stroke-linecap="round" stroke-linejoin="round"/>
<path d="M422.394 121.177C422.394 121.177 426.309 122.205 427.322 123.462C427.322 123.462 424.206 124.552 423.696 122.982" stroke="#263238" stroke-linecap="round" stroke-linejoin="round"/>
<path d="M424.039 104.03C424.039 104.03 427.901 103.642 429.744 106.254" stroke="#263238" stroke-linecap="round" stroke-linejoin="round"/>
<path d="M426.354 109.972C426.354 110.734 426.042 111.373 425.653 111.373C425.265 111.373 424.953 110.749 424.953 109.972C424.953 109.195 425.273 108.57 425.653 108.57C426.034 108.57 426.354 109.202 426.354 109.972Z" fill="#263238"/>
<path d="M424.305 98.5152C424.305 98.5152 422.248 93.2744 425.653 89.9837C429.058 86.693 440.081 90.0903 440.081 90.0903L437.956 90.9435C437.956 90.9435 446.266 92.6346 450.143 96.6185C454.021 100.602 450.334 119.395 443.09 123.82C443.09 123.82 440.477 123.417 439.509 120.133C438.542 116.85 435.236 113.59 435.236 113.59V107.275C435.236 107.275 432.395 103.977 434.909 99.315C434.924 99.315 429.256 97.0298 424.305 98.5152Z" fill="#263238"/>
<path d="M434.475 114.527C434.475 114.527 438.055 109.713 439.891 110.475C441.726 111.236 442.176 115.685 441.239 117.711C440.302 119.737 436.798 123.889 436.021 122.35" fill="white"/>
<path d="M434.475 114.527C434.475 114.527 438.055 109.713 439.891 110.475C441.726 111.236 442.176 115.685 441.239 117.711C440.302 119.737 436.798 123.889 436.021 122.35" stroke="#263238" stroke-linecap="round" stroke-linejoin="round"/>
</svg>
