<svg width="636" height="368" viewBox="0 0 636 368" fill="none" xmlns="http://www.w3.org/2000/svg">
<path d="M163.39 136.184C105.589 62.3781 67.111 41.8415 0 0V371H636C585.753 310.42 566.941 265.009 472.61 258.348C339.712 268.94 265.778 272.111 163.39 136.184Z" fill="#BFBFBF"/>
<g clip-path="url(#clip0)">
<path d="M309.901 347.802C316.097 347.393 326.42 338.292 331.377 334.572C338.813 328.782 345.418 320.524 350.375 312.253C360.289 296.544 365.655 280.016 361.119 261.417C353.275 227.53 309.479 209.341 289.242 243.649C278.089 262.657 281.807 288.286 287.173 308.534C289.651 316.804 298.735 351.1 310.31 349.451" fill="#2C6D3D"/>
<path d="M324.437 237.239C319.765 254.808 322.194 273.134 321.401 291.063C320.645 308.087 316.556 324.901 310.099 340.635C306.406 349.637 301.969 358.329 297.248 366.834C296.765 367.702 298.103 368.496 298.586 367.616C306.765 352.848 314.015 337.498 318.291 321.106C320.484 312.725 321.984 304.12 322.665 295.477C323.371 286.5 323.049 277.486 323 268.485C322.95 258.144 323.235 247.691 325.912 237.635C326.185 236.681 324.685 236.272 324.437 237.239Z" fill="white"/>
<path d="M337.313 245.732C332.691 251.932 326.247 256.47 321.612 262.682C322.021 262.632 322.417 262.583 322.826 262.521C316.605 256.185 313.767 247.369 307.546 241.033C306.852 240.326 305.749 241.417 306.456 242.124C312.677 248.46 315.515 257.276 321.736 263.612C322.12 263.996 322.665 263.847 322.95 263.45C327.573 257.251 334.017 252.713 338.652 246.501C339.247 245.72 337.908 244.939 337.313 245.732Z" fill="white"/>
<path d="M345.282 258.392C343.101 260.586 341.031 262.893 338.986 265.236C337.152 267.344 335.417 269.625 333.36 271.522C329.432 275.155 324.549 277.586 320.905 281.528C321.265 281.528 321.637 281.528 321.996 281.528C313.978 271.498 303.172 264.294 294.323 255.081C293.629 254.362 292.539 255.453 293.233 256.172C302.081 265.385 312.9 272.589 320.905 282.62C321.166 282.942 321.736 282.905 321.996 282.62C325.639 278.677 330.522 276.234 334.451 272.613C336.495 270.716 338.243 268.423 340.077 266.327C342.109 263.984 344.179 261.69 346.372 259.483C347.091 258.776 345.988 257.685 345.282 258.392Z" fill="white"/>
<path d="M350.66 274.089C341.328 284.703 331.997 295.688 320.249 303.723C320.558 303.76 320.868 303.81 321.19 303.847C314.808 296.172 308.81 288.174 302.193 280.698C301.536 279.954 300.433 281.045 301.102 281.789C307.72 289.266 313.718 297.263 320.1 304.938C320.311 305.186 320.781 305.236 321.042 305.062C332.914 296.941 342.345 285.905 351.763 275.18C352.407 274.449 351.317 273.345 350.66 274.089Z" fill="white"/>
<path d="M341.155 302.198C334.116 310.084 325.776 317.449 316.109 321.912C316.469 321.999 316.816 322.098 317.175 322.185C312.392 313.555 306.158 305.831 300.123 298.056C299.516 297.275 298.425 298.379 299.032 299.148C304.993 306.81 311.128 314.448 315.849 322.966C316.06 323.363 316.531 323.413 316.915 323.239C326.68 318.726 335.157 311.237 342.27 303.277C342.915 302.557 341.824 301.454 341.155 302.198Z" fill="white"/>
<path d="M462.429 339.122C466.147 336.023 466.766 327.653 468.006 323.004C470.794 312.154 472.653 301.305 472.963 289.836C473.273 284.256 472.033 238.999 459.641 250.469C453.754 255.428 452.515 266.277 451.586 273.097C450.966 278.367 450.966 292.316 446.628 296.035C439.193 302.855 439.503 270.617 439.813 266.587C440.122 258.838 440.432 251.709 437.954 244.269C437.024 241.169 433.616 229.39 428.659 230.01C419.675 231.56 421.224 263.488 418.125 269.997C415.027 276.197 410.07 278.057 408.211 270.307C406.972 264.108 408.831 257.598 410.07 251.709C411.619 241.789 414.408 224.74 406.972 216.061C397.678 205.212 393.65 236.21 393.03 241.169C392.101 246.439 391.481 254.188 384.975 248.299C380.638 244.579 378.779 237.14 376.3 232.18C372.273 223.5 363.908 207.382 353.064 205.212C339.432 202.732 349.656 226.6 352.445 231.56C358.021 241.169 370.724 252.018 372.892 263.178C374.132 269.997 369.175 267.517 364.837 265.348C359.57 262.558 354.923 259.148 349.037 258.218C345.009 257.598 338.813 258.528 337.883 263.488C336.954 268.447 343.46 273.097 346.868 275.577C357.092 282.706 371.034 284.566 380.638 292.316C387.764 298.515 382.187 300.685 375.371 299.135C368.245 297.275 361.739 294.176 354.304 293.556C349.037 293.246 341.291 292.626 338.193 298.205C335.715 302.545 338.503 307.195 342.221 309.984C352.445 317.114 367.006 317.424 378.779 320.214C381.257 320.834 393.03 323.933 389.932 328.273C387.144 331.683 374.132 328.273 370.724 328.273C365.767 327.963 356.782 326.413 353.064 331.063C349.037 336.953 356.162 340.362 360.81 341.292C372.273 344.392 385.285 342.532 397.058 342.842C415.027 343.462 433.306 344.702 451.586 342.842C455.923 342.532 460.57 341.912 463.358 337.882" fill="#2C6D3D"/>
<path d="M338.193 298.205C341.291 292.626 349.037 293.246 354.304 293.556C361.739 294.176 368.245 297.275 375.371 299.135C382.187 300.685 387.764 298.515 380.638 292.316C371.034 284.566 357.092 282.706 346.868 275.577C343.46 273.097 336.954 268.447 337.883 263.488C338.813 258.528 345.009 257.598 349.037 258.218C354.923 259.148 359.57 262.558 364.837 265.348C369.175 267.517 374.132 269.997 372.892 263.178C370.724 252.018 358.021 241.169 352.445 231.56C349.917 227.071 341.304 207.072 349.817 205.175C351.119 211.511 355.183 216.991 359.05 222.037C363.536 227.89 367.353 234.077 371.368 240.252C380.886 254.895 390.998 269.142 402.325 282.446C412.908 294.882 424.669 306.475 436.652 317.56C444.968 325.26 453.754 332.352 463.582 337.845C463.235 338.329 462.85 338.75 462.429 339.11L463.359 337.87C460.57 341.9 455.923 342.52 451.586 342.83C433.306 344.69 415.027 343.45 397.058 342.83C385.285 342.52 372.273 344.38 360.81 341.28C356.162 340.35 349.037 336.94 353.064 331.051C356.782 326.401 365.767 327.951 370.724 328.261C374.132 328.261 387.144 331.671 389.932 328.261C393.03 323.921 381.257 320.821 378.779 320.201C367.006 317.412 352.445 317.102 342.221 309.972C338.503 307.195 335.715 302.545 338.193 298.205Z" fill="#92E3A9"/>
<path d="M349.297 208.386C359.781 228.237 372.855 246.501 386.723 264.095C393.7 272.948 400.702 281.851 408.075 290.381C415.56 299.048 423.653 307.195 432.216 314.795C441.758 323.264 451.895 331.088 462.665 337.92C463.507 338.453 464.288 337.114 463.445 336.581C444.311 324.442 426.974 309.265 411.892 292.378C404.444 284.045 397.529 275.205 390.577 266.463C383.649 257.759 376.871 248.931 370.476 239.818C363.239 229.477 356.534 218.764 350.648 207.605C350.164 206.724 348.826 207.506 349.297 208.386Z" fill="white"/>
<path d="M399.103 240.648C397.566 247.183 396.835 253.916 396.909 260.636C396.971 266.773 398.756 272.837 398.149 278.987C398.471 278.739 398.805 278.491 399.128 278.243C388.755 276.085 378.135 276.333 367.626 275.428C366.634 275.341 366.634 276.891 367.626 276.978C377.986 277.871 388.482 277.623 398.706 279.743C399.239 279.855 399.636 279.52 399.685 278.999C400.268 273.023 398.595 267.108 398.458 261.144C398.297 254.412 399.053 247.629 400.59 241.082C400.825 240.091 399.326 239.681 399.103 240.648Z" fill="white"/>
<path d="M367.502 227.729C368.109 231.448 368.394 235.218 368.406 238.987C368.791 238.764 369.187 238.541 369.571 238.317C366.027 236.371 362.755 233.978 359.347 231.808C358.505 231.275 357.724 232.614 358.567 233.147C361.975 235.317 365.246 237.71 368.791 239.657C369.299 239.942 369.955 239.582 369.955 238.987C369.955 235.081 369.633 231.163 369.001 227.307C368.828 226.34 367.341 226.749 367.502 227.729Z" fill="white"/>
<path d="M408.707 279.185C409.327 283.525 409.909 287.914 409.612 292.303C409.934 292.055 410.269 291.807 410.591 291.559C406.043 290.89 401.755 289.129 397.269 288.15C396.302 287.939 395.881 289.427 396.86 289.65C401.346 290.629 405.634 292.39 410.182 293.06C410.702 293.134 411.124 292.861 411.161 292.316C411.471 287.79 410.839 283.252 410.207 278.776C410.058 277.796 408.571 278.205 408.707 279.185Z" fill="white"/>
<path d="M425.103 261.628C423.591 276.792 422.698 292.018 424.483 307.195C424.743 306.934 425.003 306.674 425.251 306.426C410.925 307.629 396.476 306.153 382.187 307.976C381.208 308.1 381.196 309.65 382.187 309.526C396.476 307.703 410.925 309.179 425.251 307.976C425.635 307.939 426.082 307.641 426.02 307.207C424.235 292.031 425.127 276.804 426.639 261.64C426.738 260.636 425.189 260.636 425.103 261.628Z" fill="white"/>
<path d="M433.777 290.456C435.029 300.511 436.33 310.567 438.759 320.424C439.007 320.102 439.255 319.767 439.503 319.445C428.163 320.672 416.849 322.21 405.423 322.235C404.432 322.235 404.419 323.785 405.423 323.785C416.849 323.76 428.163 322.222 439.503 320.995C440.011 320.945 440.383 320.548 440.246 320.015C437.842 310.307 436.553 300.375 435.314 290.468C435.202 289.476 433.653 289.464 433.777 290.456Z" fill="white"/>
<path d="M452.676 303.165C452.317 308.298 452.887 313.394 453.308 318.503C453.519 321.057 453.68 323.611 453.643 326.165C453.63 327.318 453.816 329.6 452.862 330.517C452.193 331.162 450.842 331.1 449.987 331.199C448.041 331.423 446.108 331.745 444.187 332.117C439.131 333.109 434.174 334.498 429.08 335.279C428.101 335.427 428.51 336.928 429.489 336.779C435.066 335.911 440.482 334.324 446.034 333.344C447.843 333.022 449.665 332.836 451.474 332.576C452.428 332.439 453.382 332.241 454.064 331.485C454.857 330.592 454.981 329.277 455.093 328.149C455.34 325.545 455.167 322.88 454.981 320.276C454.584 314.572 453.829 308.893 454.225 303.177C454.287 302.161 452.738 302.173 452.676 303.165Z" fill="white"/>
<path d="M244.133 354.621C247.454 346.698 247.777 337.982 248.954 329.587C249.586 325.111 250.553 320.685 251.247 316.221C251.978 311.485 252.573 306.723 253.106 301.962C255.175 283.413 256.563 264.765 256.043 246.092C255.547 228.014 253.254 209.948 248.483 192.478C246.228 184.22 243.638 175.751 239.945 168.014C237.615 163.129 234.591 158.541 231.679 153.991C227.564 147.568 223.326 141.232 219.274 134.772C215.767 129.193 212.136 123.501 209.595 117.401C209.223 116.496 207.724 116.893 208.108 117.81C210.289 123.03 213.238 127.928 216.188 132.726C219.757 138.529 223.512 144.208 227.217 149.924C230.477 154.933 233.761 159.93 236.698 165.138C240.316 171.573 242.683 178.74 244.902 185.77C256.03 221.107 255.981 258.33 252.3 294.857C251.755 300.288 251.16 305.719 250.429 311.138C249.722 316.345 248.719 321.491 247.851 326.674C246.314 335.874 246.302 345.483 242.646 354.212C242.262 355.117 243.761 355.526 244.133 354.621Z" fill="#92E3A9"/>
<path d="M247.888 189.093C247.628 182.769 248.396 176.409 247.702 170.097C247.07 164.381 245.174 158.777 242.646 153.619C237.875 143.873 230.427 135.789 222.508 128.511C217.923 124.295 213.139 120.29 208.418 116.211C207.897 115.764 207.141 116.074 207.092 116.756C206.224 128.697 209.942 140.414 215.742 150.742C218.406 155.504 221.455 160.091 225.073 164.171C228.68 168.213 232.583 171.97 236.301 175.913C240.143 179.992 244.133 184.307 246.438 189.477C246.847 190.382 248.173 189.601 247.777 188.696C245.868 184.418 242.782 180.723 239.672 177.277C236.09 173.309 232.249 169.589 228.581 165.696C220.885 157.549 214.788 147.643 211.293 136.967C209.161 130.433 208.133 123.613 208.641 116.756C208.195 116.942 207.761 117.116 207.315 117.302C223.252 131.077 241.952 145.708 245.819 167.804C247.045 174.834 246.042 182.001 246.327 189.093C246.376 190.085 247.925 190.085 247.888 189.093Z" fill="#92E3A9"/>
<path d="M254.803 229.564C258.521 221.368 263.59 213.767 266.341 205.137C269.204 196.148 268.522 186.948 267.258 177.748C266.49 172.168 265.684 166.601 265.659 160.959C265.659 160.116 264.296 159.868 264.135 160.748C260.107 183.612 253.837 206.179 253.775 229.564C253.775 230.556 255.324 230.568 255.324 229.564C255.373 206.315 261.619 183.898 265.622 161.158C265.114 161.083 264.606 161.021 264.098 160.947C264.147 170.234 266.415 179.298 266.824 188.56C267.035 193.42 266.626 198.268 265.349 202.968C264.16 207.382 262.214 211.548 260.145 215.615C257.926 219.992 255.485 224.282 253.453 228.758C253.056 229.688 254.382 230.481 254.803 229.564Z" fill="#92E3A9"/>
<path d="M256.142 248.187C254.902 238.565 250.429 229.799 244.939 221.926C239.065 213.494 232.05 205.918 225.061 198.417C221.393 194.474 217.7 190.556 214.193 186.464C213.722 185.906 212.929 186.402 212.867 187.01C212.049 196.346 216.237 205.832 220.662 213.804C222.967 217.958 225.569 221.938 228.481 225.695C231.604 229.725 235.31 233.097 239.362 236.172C244.27 239.917 249.487 243.252 253.998 247.48C254.729 248.162 255.819 247.071 255.088 246.389C247.454 239.26 237.751 234.523 231.009 226.402C225.049 219.223 220.054 210.729 216.894 201.951C215.184 197.177 213.97 192.106 214.416 187.01C213.97 187.196 213.536 187.369 213.09 187.555C225.631 202.224 240.886 215.255 249.66 232.763C252.089 237.611 253.899 242.794 254.593 248.175C254.717 249.167 256.266 249.179 256.142 248.187Z" fill="#92E3A9"/>
<path d="M255.088 280.152C262.177 274.523 266.675 265.596 270.021 257.363C273.69 248.336 276.329 238.801 277.94 229.179C278.857 223.724 279.452 218.181 279.279 212.639C279.254 211.92 278.188 211.523 277.841 212.242C267.729 233.321 259.562 255.255 254.63 278.143C254.419 279.111 255.919 279.532 256.129 278.553C261.024 255.8 269.129 233.978 279.18 213.023C278.696 212.887 278.213 212.763 277.742 212.626C278.039 222.447 276.143 232.353 273.59 241.789C271.211 250.593 268.076 259.346 263.491 267.257C260.962 271.609 257.988 275.874 254.01 279.036C253.217 279.669 254.32 280.76 255.088 280.152Z" fill="#92E3A9"/>
<path d="M253.254 298.614C252.746 293.977 251.383 289.6 249.474 285.36C247.393 280.747 244.753 276.42 242.733 271.783C238.569 262.223 236.276 251.981 232.075 242.434C231.815 241.851 230.749 241.975 230.663 242.62C229.398 251.721 229.77 261.057 231.468 270.084C232.968 278.007 235.223 285.831 241.432 291.349C244.617 294.176 248.235 296.469 251.507 299.172C252.275 299.805 253.366 298.714 252.597 298.081C247.281 293.692 240.886 290.257 237.429 284.045C235.347 280.288 234.269 275.912 233.376 271.745C232.41 267.269 231.827 262.719 231.58 258.156C231.307 253.11 231.443 248.038 232.137 243.041C231.666 243.103 231.195 243.165 230.724 243.227C234.789 252.477 237.057 262.384 240.986 271.683C244.79 280.673 250.602 288.67 251.68 298.627C251.804 299.594 253.366 299.606 253.254 298.614Z" fill="#92E3A9"/>
<path d="M221.554 129.986C221.343 133.16 220.736 136.31 220.724 139.496C221.046 139.248 221.38 139 221.703 138.752C218.01 138.12 214.49 136.707 210.76 136.248C210.339 136.198 209.992 136.645 209.992 137.017C209.992 137.475 210.351 137.736 210.76 137.785C214.341 138.232 217.737 139.633 221.294 140.24C221.789 140.327 222.273 140.042 222.273 139.496C222.285 136.31 222.892 133.16 223.103 129.986C223.165 128.994 221.616 128.994 221.554 129.986Z" fill="#92E3A9"/>
<path d="M232.906 142.175C232.695 146.527 232.311 150.879 231.691 155.194C231.939 155.008 232.187 154.809 232.435 154.623C229.993 154.871 227.453 154.202 225.123 153.557C222.694 152.9 220.302 152.081 217.985 151.139C217.068 150.767 216.659 152.255 217.576 152.639C219.968 153.619 222.446 154.45 224.937 155.119C227.329 155.764 229.944 156.421 232.435 156.173C232.744 156.148 233.129 155.962 233.178 155.603C233.81 151.152 234.232 146.663 234.442 142.175C234.504 141.183 232.955 141.183 232.906 142.175Z" fill="#92E3A9"/>
<path d="M241.382 155.404C241.481 157.624 241.209 159.868 240.787 162.038C240.378 164.133 239.858 166.266 239.003 168.238C239.3 168.114 239.585 168.002 239.883 167.878C236.066 166.328 231.939 165.659 227.899 164.989C226.92 164.828 226.499 166.316 227.49 166.489C231.53 167.159 235.657 167.841 239.474 169.378C239.759 169.49 240.23 169.304 240.354 169.019C241.258 166.923 241.853 164.691 242.287 162.447C242.733 160.141 243.043 157.748 242.931 155.392C242.882 154.413 241.333 154.4 241.382 155.404Z" fill="#92E3A9"/>
<path d="M213.313 189.093C214.18 193.358 216.857 196.867 219.236 200.401C221.715 204.096 223.933 207.952 226.561 211.56C232.013 219 238.718 225.398 244.53 232.552C246.314 234.747 248.025 236.991 249.648 239.309C251.073 241.368 253.056 243.723 253.799 246.129C254.097 247.084 255.596 246.674 255.299 245.72C254.704 243.798 253.341 242.05 252.25 240.388C250.912 238.367 249.499 236.396 248.012 234.474C245.249 230.878 242.287 227.431 239.251 224.046C236.09 220.525 232.819 217.127 229.894 213.408C227.056 209.799 224.503 205.981 222.124 202.05C219.509 197.748 215.841 193.743 214.812 188.684C214.614 187.704 213.115 188.113 213.313 189.093Z" fill="#92E3A9"/>
<path d="M264.333 164.493C262.524 175.082 264.147 186.067 261.446 196.52C260.144 201.579 257.864 206.315 256.551 211.362C255.894 213.854 255.733 216.458 255.534 219.012C255.448 220.24 255.349 221.479 255.2 222.695C255.051 223.959 254.964 225.46 254.63 226.675C254.357 227.642 255.857 228.051 256.129 227.084C256.737 224.914 256.823 222.385 256.997 220.14C257.22 217.338 257.331 214.486 258.038 211.758C259.351 206.712 261.632 201.976 262.933 196.917C265.647 186.439 264.023 175.479 265.82 164.89C265.994 163.935 264.494 163.513 264.333 164.493Z" fill="#92E3A9"/>
<path d="M230.663 246.129C233.885 264.256 239.635 282.756 251.309 297.313C251.928 298.094 253.019 296.99 252.399 296.221C240.899 281.888 235.322 263.562 232.15 245.732C231.989 244.728 230.489 245.149 230.663 246.129Z" fill="#92E3A9"/>
<path d="M276.701 216.991C276.428 219.756 274.991 222.087 274.049 224.641C273.132 227.096 272.896 229.712 272.339 232.254C271.211 237.437 269.303 242.632 267.369 247.555C263.503 257.437 257.691 266.736 255.249 277.127C255.026 278.094 256.513 278.515 256.749 277.536C258.001 272.192 260.231 267.183 262.561 262.235C264.854 257.363 267.122 252.477 269.067 247.443C270.988 242.434 272.971 237.14 273.987 231.87C274.52 229.08 274.929 226.377 276.069 223.761C277.036 221.541 278.002 219.434 278.25 216.991C278.337 215.999 276.788 215.999 276.701 216.991Z" fill="#92E3A9"/>
<path d="M228.023 351.1C229.56 341.292 228.593 331.162 226.883 321.441C225.061 311.1 222.248 300.871 218.332 291.125C210.326 271.212 194.513 255.143 178.638 241.206C169.344 233.048 159.578 225.46 149.59 218.169C149.206 217.884 148.537 218.169 148.45 218.628C144.174 240.872 149.801 263.971 158.897 284.293C163.445 294.448 169.022 304.132 175.441 313.221C181.712 322.086 188.379 331.026 197.029 337.734C201.527 341.218 206.435 343.896 211.851 345.62C216.87 347.207 222.583 348.434 226.102 352.675C226.734 353.443 227.825 352.34 227.193 351.584C224.355 348.161 220.092 346.587 215.977 345.285C213.709 344.566 211.429 343.921 209.198 343.09C206.881 342.222 204.737 341.007 202.618 339.742C193.1 334.014 185.863 325.012 179.407 316.147C166.345 298.205 155.923 278.119 151.09 256.333C148.376 244.133 147.558 231.386 149.925 219.062C149.54 219.21 149.169 219.372 148.785 219.52C166.506 232.465 183.893 246.389 198.38 262.979C205.072 270.63 211.342 279.011 215.469 288.36C219.509 297.536 222.384 307.281 224.441 317.077C226.722 327.976 228.246 339.594 226.511 350.691C226.375 351.67 227.874 352.092 228.023 351.1Z" fill="#92E3A9"/>
<path d="M149.776 222.546C153.903 231.3 159.554 239.223 165.106 247.096C170.819 255.205 176.383 263.45 181.637 271.857C192.58 289.352 202.928 307.269 212.73 325.421C215.184 329.959 217.675 334.46 220.315 338.899C222.657 342.842 225.21 346.884 226.536 351.298C226.821 352.253 228.32 351.844 228.035 350.889C226.945 347.207 224.999 343.809 223.078 340.511C220.872 336.717 218.58 332.985 216.51 329.129C211.553 319.916 206.571 310.704 201.28 301.689C190.882 284.008 180.497 266.352 168.724 249.526C162.441 240.549 155.811 231.696 151.127 221.752C150.693 220.859 149.355 221.641 149.776 222.546Z" fill="#92E3A9"/>
<path d="M175.305 241.368C173.21 246.637 174.437 252.415 173.656 257.896C173.904 257.71 174.152 257.511 174.4 257.325C166.196 256.817 158.314 253.457 150.643 250.741C149.702 250.407 149.293 251.907 150.234 252.242C158.042 255.007 166.035 258.354 174.4 258.888C174.697 258.912 175.106 258.64 175.144 258.317C175.924 252.849 174.71 247.022 176.792 241.789C177.176 240.859 175.676 240.45 175.305 241.368Z" fill="#92E3A9"/>
<path d="M193.485 257.077C190.436 266.426 190.176 276.482 189.742 286.215C190.002 285.955 190.263 285.695 190.51 285.447C180.646 285.843 170.583 284.839 160.979 282.582C160.012 282.359 159.591 283.847 160.57 284.083C170.31 286.377 180.522 287.406 190.523 287.009C190.957 286.996 191.279 286.662 191.291 286.24C191.725 276.631 191.973 266.736 194.984 257.511C195.294 256.544 193.794 256.135 193.485 257.077Z" fill="#92E3A9"/>
<path d="M210.81 280.425C211.38 285.31 210.958 290.245 210.512 295.118C210.289 297.523 209.979 299.954 209.979 302.371C209.979 305 209.954 307.629 209.694 310.245C209.546 311.696 209.471 313.32 209.149 314.746C208.963 315.564 208.492 315.539 207.699 315.676C203.461 316.382 199.322 316.767 195.009 316.581C189.643 316.345 184.314 315.626 178.948 315.601C177.957 315.601 177.944 317.151 178.948 317.151C184.054 317.176 189.122 317.821 194.203 318.093C198.851 318.341 203.262 317.92 207.848 317.213C210.128 316.866 210.574 315.911 210.822 313.717C211.082 311.398 211.38 309.092 211.466 306.748C211.566 303.946 211.528 301.169 211.764 298.366C212.272 292.415 213.053 286.389 212.359 280.425C212.247 279.445 210.698 279.433 210.81 280.425Z" fill="#92E3A9"/>
</g>
<defs>
<clipPath id="clip0">
<rect width="326" height="252" fill="white" transform="translate(147 116)"/>
</clipPath>
</defs>
</svg>
